<svg x="0px" y="0px"
	 viewBox="0 0 513.33 513.33">
<g>
	<path d="M140,23.34C140,10.45,150.45,0,163.33,0h326.66c12.89,0,23.34,10.45,23.34,23.34V350
		c0,12.89-10.45,23.34-23.34,23.34h-70v-46.67h46.67v-280h-280v46.67h-46.67L140,23.34z"/>
	<path class="checkMark" d="M274.24,283.71l-81.67,93.33c-8.22,9.39-22.39,10.65-32.14,2.86l-58.33-46.67l29.15-36.44l40.9,32.72
		l66.96-76.53L274.24,283.71z"/>
	<path d="M0,163.34C0,150.45,10.45,140,23.34,140H350c12.89,0,23.34,10.45,23.34,23.34V490
		c0,12.89-10.45,23.34-23.34,23.34H23.34C10.45,513.33,0,502.89,0,490V163.34z M46.67,186.67v280h280v-280L46.67,186.67z"/>
</g>
</svg>