<svg id="Layer_6_-_expanded_mask" data-name="Layer 6 - expanded mask" xmlns="http://www.w3.org/2000/svg" viewBox="0 0 349.2 403.6"><title>nxdos-logo-lower-mask2</title><path d="M5.16,402.73v-.1H2.25V178.2L4,178a15.43,15.43,0,0,1,2.3-.12c7.33,0,14,0,20.28,0l17,0c10.34,0,19.13,0,28.52.16,17.21.22,32.47,3.69,46.67,10.61,1.8.88,3.6,1.84,5.34,2.83a104.45,104.45,0,0,1,27.06-10.48A112.92,112.92,0,0,1,172.23,178c2.05-.09,4.11-.14,6.11-.14a109,109,0,0,1,33.36,4.94,101.32,101.32,0,0,1,12,4.52,82.59,82.59,0,0,1,23.21-7.68A108.26,108.26,0,0,1,263.36,178c1.67-.08,3.39-.12,5.1-.12a117.71,117.71,0,0,1,19.83,1.75,77,77,0,0,1,33.82,14.48c1.58,1.21,3.12,2.5,4.57,3.84a57.47,57.47,0,0,1,18.2,34.24,36.47,36.47,0,0,1,.82,6.81,39.62,39.62,0,0,1-.32,5.07c-1.26,13.09-11.67,18.12-20.2,18.43-.33,0-.75.05-1.17.05-6.38,0-12.94-3.67-17.14-9.58a21.15,21.15,0,0,1-3.84-9.18c-.13-.74-.27-1.53-.4-2.32a56.88,56.88,0,0,0-1.44-6.79c-2-6.41-6.07-11.28-12.44-14.86-.82-.45-1.71-.89-2.62-1.29a40.16,40.16,0,0,0-13.78-3.13c-1.49-.07-2.86-.11-4.17-.11a52.81,52.81,0,0,0-7.73.52,108.25,108.25,0,0,1,21.92,46.68c.44,2,.83,4.16,1.19,6.52,5.36,1.49,11.56,3.25,17.83,5.18a76,76,0,0,1,27.84,14.9,55.71,55.71,0,0,1,18.32,29.64l.1,0,.44,1.94c.86,4.9,1.84,10.44,1.63,15.93,0,1.09-.09,2.24-.19,3.62-.77,14-5.33,25.94-13.55,35.5A69.94,69.94,0,0,1,315.4,391.9a89.56,89.56,0,0,1-31.83,9.56l-1.33.16a118.45,118.45,0,0,1-13.3.75h-1c-1.63,0-3.26-.05-4.83-.13-15.92-.56-29.31-3.62-40.85-9.34a106.38,106.38,0,0,1-28.8,7.92,123.11,123.11,0,0,1-15.95,1c-1.76,0-3.54,0-5.3-.11a104.93,104.93,0,0,1-47.44-12.93c-11.42,6.69-24.16,10.86-38.91,12.72-7.15.9-21,1.2-21.61,1.21H5.16ZM260.83,363.4q1.19.14,2.37.24c1.76.15,3.53.22,5.26.22a58.23,58.23,0,0,0,11.74-1.19,32.16,32.16,0,0,0,16.18-8.27,22,22,0,0,0,6.85-14.55c0-.91,0-1.92,0-2.92a32.74,32.74,0,0,0-1-6.13c-1.35-5.62-5.09-9.92-11.76-13.51a47.28,47.28,0,0,0-7.5-3.21,112.08,112.08,0,0,1-8.81,27.7A108.48,108.48,0,0,1,260.83,363.4ZM46.15,362.31l6.4,0c5.81,0,10.82,0,17.86-.19l2.71-.06a58.19,58.19,0,0,0,18-3.53,111,111,0,0,1-17.61-41.87A112.58,112.58,0,0,1,71,290.48a120.76,120.76,0,0,1,6.85-43.22A109.6,109.6,0,0,1,91,221.42c-7.24-2.54-15.3-3.81-25.14-4-3.26,0-5.41,0-7.21,0l-4.22,0-8.12,0h-.2Zm111-4.1a64.69,64.69,0,0,0,20.45,3.33,69.27,69.27,0,0,0,13-1.26,63.5,63.5,0,0,1-5.18-18.81v-.13c-.15-3-.19-4.68-.15-7.09,0-1.67,0-3.37.05-5.56.58-12.65,9.6-22.16,21-22.16,12,0,21.7,10,21.7,22.2l-.07,0c.25,2.34.5,4.75.81,7.13a67.84,67.84,0,0,0,7.84-14.67,79.75,79.75,0,0,0,4.85-18.68c-11.47-3.58-20.94-8.27-28.91-14.31a53.83,53.83,0,0,1-21.33-34.88h0l-.21-1.44A69.81,69.81,0,0,1,192.38,225c.45-1.73,1-3.47,1.63-5.2a65.92,65.92,0,0,0-16-1.93c-.82,0-1.65,0-2.47,0a65.65,65.65,0,0,0-19.23,3.47,98.55,98.55,0,0,1,5.67,9.4,110.73,110.73,0,0,1,10.83,31.65h0l.41,2.16A128,128,0,0,1,175,283.4c0,1.41.06,2.85.11,4.24,0,1.18.09,2.36.1,3.54,0,.87,0,1.74,0,2.61-.57,20.66-4.32,37.87-11.45,52.61A104.36,104.36,0,0,1,157.12,358.21Zm-34-109.07c-5.9,10-9.16,21.5-10,35a90.11,90.11,0,0,0,1.67,24.07,73.69,73.69,0,0,0,8.29,22c5.09-9.84,7.88-21.37,8.53-35.21a114.33,114.33,0,0,0-.69-19.16C129.65,265.4,127.08,256.65,123.12,249.14Z"/><path d="M346.11,320.5l-.1,0a53.6,53.6,0,0,0-18.09-30.42,74.06,74.06,0,0,0-27.12-14.5c-6.31-1.94-12.67-3.75-19-5.52-.37-2.56-.8-5.12-1.35-7.68-3.92-18.53-11.76-34.74-23.7-48.43a57.06,57.06,0,0,1,15.76-1.07,42.32,42.32,0,0,1,14.47,3.3c1,.43,1.9.89,2.8,1.38,6.37,3.57,11.09,8.69,13.37,16A84.41,84.41,0,0,1,305,243a19,19,0,0,0,3.5,8.32c3.89,5.49,10.41,9.16,16.59,8.68,8.34-.3,17.18-5.3,18.28-16.7a38.53,38.53,0,0,0,.31-4.8,35,35,0,0,0-.81-6.5,55.25,55.25,0,0,0-17.57-33.08c-1.4-1.29-2.87-2.53-4.43-3.72a74.44,74.44,0,0,0-32.95-14.1,111.85,111.85,0,0,0-24.51-1.6,109.35,109.35,0,0,0-16.17,1.6,79.61,79.61,0,0,0-23.51,8,100.38,100.38,0,0,0-12.65-4.85,110.81,110.81,0,0,0-38.78-4.7,110.74,110.74,0,0,0-20.69,2.8,101.54,101.54,0,0,0-27.53,10.85q-3-1.78-6.23-3.35c-14.56-7.1-29.93-10.2-45.8-10.4-24.62-.3-41.19-.1-65.8-.1a13.47,13.47,0,0,0-2,.1V400.1a18.92,18.92,0,0,1,2.91.1H64.23s14.26-.3,21.4-1.2c13.79-1.74,27-5.73,39.13-13a104.32,104.32,0,0,0,15,6.94,106.79,106.79,0,0,0,32.55,6.3,121.78,121.78,0,0,0,20.89-.9,103.77,103.77,0,0,0,29.13-8.16c12.83,6.57,26.66,9.06,40.89,9.56,1.58.08,3.16.12,4.74.13a116.12,116.12,0,0,0,14-.73l1.31-.16a87.81,87.81,0,0,0,31.13-9.34,67.61,67.61,0,0,0,20-15.7c8.51-9.9,12.37-21.61,13.07-34.35.09-1.18.16-2.36.19-3.55C347.91,330.8,347,325.6,346.11,320.5Zm-272.94,43-2.72.06c-9.91.21-15.75.16-25.61.22-.21,0-.43,0-.7-.08V214.9h2.21c9.94,0,9.74-.1,19.59,0s19.2,1.41,28.26,5A105.84,105.84,0,0,0,79.7,247.4,119.29,119.29,0,0,0,73,290a109.69,109.69,0,0,0,2.51,25.7c3.3,16.12,9.45,30.62,18.79,43.21A61.31,61.31,0,0,1,73.17,363.5Zm60.47-68.9c-.6,12.8-3,25.2-9,36.6-.44.85-.91,1.69-1.38,2.51a74.19,74.19,0,0,1-10.37-25.61,91.78,91.78,0,0,1-1.71-24.6c.81-13.4,4.12-26.1,11.15-37.4.3-.48.61-.94.92-1.41.55.92,1.08,1.85,1.59,2.81,4.53,8.5,6.94,17.9,8.14,27.6A113.6,113.6,0,0,1,133.64,294.6Zm104.78,26.8a68.12,68.12,0,0,1-10.81,18.69c-.29-1.1-.54-2.22-.74-3.39-.41-2.9-.71-5.8-1-8.7l.1.2A19.94,19.94,0,0,0,206.27,308c-10.85,0-18.48,9.2-19,20.2,0,2.17-.08,3.86,0,5.55,0,2.34,0,4,.15,6.95a61.66,61.66,0,0,0,5.32,18.9c.25.54.52,1.06.78,1.59A67.86,67.86,0,0,1,154,358.7a101.28,101.28,0,0,0,8-13.7c7.84-16.2,10.75-33.7,11.25-51.8,0-.84,0-1.68,0-2.53,0-2.59-.21-5.21-.21-7.77a126,126,0,0,0-1.81-18.5h-.05a108.58,108.58,0,0,0-11-33.21,97.21,97.21,0,0,0-7-11.3,66.61,66.61,0,0,1,22.28-4.5,68.14,68.14,0,0,1,21.26,2.53,54.31,54.31,0,0,0-2.37,7.07,68,68,0,0,0-1.41,26.1h0a52,52,0,0,0,20.78,35c9,6.84,19.22,11.29,29.9,14.48A82.31,82.31,0,0,1,238.42,321.4Zm66.81,18.1a24.08,24.08,0,0,1-7.44,15.8,34.13,34.13,0,0,1-17.18,8.8,61,61,0,0,1-17.58,1c-2-.17-4-.42-6-.77a105.73,105.73,0,0,0,15.34-23.93,109.59,109.59,0,0,0,9-29.46,54,54,0,0,1,10,4.06c6.13,3.3,11.05,7.7,12.76,14.8a35.19,35.19,0,0,1,1,6.5A31.08,31.08,0,0,1,305.23,339.5Z"/></svg>