<svg id="Layer_1" data-name="Layer 1" xmlns="http://www.w3.org/2000/svg" xmlns:xlink="http://www.w3.org/1999/xlink" viewBox="0 0 349.2 403.61"><defs><style>.cls-1,.cls-83,.cls-98{fill:none;}.cls-2{clip-path:url(#clip-path);}.cls-3{fill:#8a8a8a;}.cls-4{fill:#262626;}.cls-5{clip-path:url(#clip-path-4);}.cls-6{clip-path:url(#clip-path-6);}.cls-7{fill:#cbcbcb;}.cls-8{fill:#888;}.cls-9{clip-path:url(#clip-path-10);}.cls-10{fill:url(#linear-gradient);}.cls-11{clip-path:url(#clip-path-11);}.cls-12{fill:url(#linear-gradient-2);}.cls-13,.cls-84{fill:#ff2600;}.cls-13,.cls-24,.cls-83,.cls-85,.cls-98{stroke:#010102;}.cls-13,.cls-24,.cls-83,.cls-84,.cls-85,.cls-98{stroke-miterlimit:10;stroke-width:4px;}.cls-14{clip-path:url(#clip-path-12);}.cls-15{fill:#941100;}.cls-16{fill:#fc0000;}.cls-17{fill:#f40600;}.cls-18{fill:#bc0d00;}.cls-19{fill:#ea0000;}.cls-20{fill:#d00;}.cls-21{fill:#c60900;}.cls-22{fill:#d30000;}.cls-23{fill:#9e0b00;}.cls-24,.cls-85,.cls-95{fill:#fffb00;}.cls-24,.cls-98{stroke-linecap:square;}.cls-25{clip-path:url(#clip-path-26);}.cls-26{fill:#929000;}.cls-27{fill:#f7ea00;}.cls-28{fill:#efdd00;}.cls-29{fill:#ccbd00;}.cls-30{fill:#e8d700;}.cls-31{fill:#d8c800;}.cls-32{fill:#aaa100;}.cls-33{fill:#ead900;}.cls-34{fill:#c6b300;}.cls-35{fill:#dbc600;}.cls-36{clip-path:url(#clip-path-48);}.cls-37{fill:#0433ff;}.cls-38{fill:#ff40ff;}.cls-39{fill:#0329cc;}.cls-40{fill:#c3c;}.cls-41{fill:#0329ca;}.cls-42{fill:#0425b2;}.cls-43{fill:#9d299f;}.cls-44{fill:#b22db2;}.cls-45{fill:#052ba3;}.cls-46{fill:#021f97;}.cls-47{fill:#9a2597;}.cls-48{fill:#0b3fd1;}.cls-49{fill:#d73adb;}.cls-50{fill:#c030c0;}.cls-51{fill:#0124b2;}.cls-52{fill:#b02eb3;}.cls-53{fill:#0c45c4;}.cls-54{fill:#b22db3;}.cls-55{fill:#a629a6;}.cls-56{fill:#0323b2;}.cls-57{fill:#0639f2;}.cls-58{fill:#a62ba7;}.cls-59{fill:#0321a6;}.cls-60{fill:#a72ba3;}.cls-61{fill:#bf30be;}.cls-62{fill:#bf30bf;}.cls-63{fill:#031468;}.cls-64{fill:#661a6a;}.cls-65{fill:#65218c;}.cls-66{fill:#0429cc;}.cls-67{fill:#a62aa6;}.cls-68{fill:#5e165c;}.cls-69{fill:#021f99;}.cls-70{fill:#992698;}.cls-71{fill:#0324b0;}.cls-72{fill:#0620a4;}.cls-73{fill:#0423b4;}.cls-74{fill:#0324b2;}.cls-75{fill:#0520a3;}.cls-76{fill:#021a7e;}.cls-77{fill:#7f217e;}.cls-78{fill:#7f207f;}.cls-79{fill:#021880;}.cls-80{fill:#6e1d70;}.cls-81{fill:#031e75;}.cls-82{fill:#e53dea;}.cls-84{stroke:#ff2600;}.cls-85{stroke-linecap:round;}.cls-86{clip-path:url(#clip-path-266);}.cls-87{fill:#c4b100;}.cls-88{fill:#a09400;}.cls-89{clip-path:url(#clip-path-396);}.cls-90{clip-path:url(#clip-path-398);}.cls-91{fill:#bf0900;}.cls-92{fill:#ea1100;}.cls-93{fill:#f20000;}.cls-94{fill:#b70d00;}.cls-96{clip-path:url(#clip-path-412);}.cls-97{fill:#d1b800;}</style><clipPath id="clip-path"><path class="cls-1" d="M200.28,43.25H144.65l44.87,65.6-48.06,73.93c1,.07-49.7-7.74-49.08-7.73l-61.18-.68L34.28-11.21l72.79,5.47,24.61,45.11,17.77-5.13L149.1-2.32l52,.34Z"/></clipPath><clipPath id="clip-path-4"><path class="cls-1" d="M154.59,168.64,134,138.24c-7.46-10.89-15-21.73-22.5-32.59l-31.8-46L64.25,37.35c-.06-.09-.19-.14-.28-.21a.53.53,0,0,0-.19,0,.34.34,0,0,0-.09.14c0,.11,0,.23-.06.35a1.08,1.08,0,0,0,0,.18v.53s.11,120.33,0,120.51Z"/></clipPath><clipPath id="clip-path-6"><path class="cls-1" d="M83.37,65l17.84,25,38.3,56.36q8,11.79,16,23.61c.43.64.8.76,1.68.81q13,0,26,0h12.35c.22,0,.44,0,.67,0V4H156.56V106.83c0,.19,0,.39,0,.58a1.69,1.69,0,0,1-.12.55,1.25,1.25,0,0,1-.56.6,1.2,1.2,0,0,1-.47.13l-.74.12-.69-1c-.26-.37-.54-.76-.8-1.15L100.29,28.3c-5.16-7.65-10.5-15.56-15.71-23.36a2.27,2.27,0,0,0-2.29-1.11c-8.26,0-16.66,0-24.78,0H43.91c0,27.87,0,55.5,0,83.11s0,55.15,0,82.93H83.33v-.16q0-25.36,0-50.57c0-16.83,0-33.65,0-50.56Zm71.16,42.31Z"/></clipPath><clipPath id="clip-path-10"><path class="cls-1" d="M276.74,81.77v.6a24.52,24.52,0,0,1,5.43.62,17.13,17.13,0,0,1,11.93,9.34,22.89,22.89,0,0,0,13.72,11.81l.56.19a35.89,35.89,0,0,1,4.29,1.66c3.24,1.6,4.56,3.94,4.1,7.33a11.3,11.3,0,0,1-5-2.44c-.13-.12-.25-.25-.37-.38l-.2-.22a8.3,8.3,0,0,0-6.21-2.7,12.53,12.53,0,0,0-1.79.14,10.9,10.9,0,0,1-1.54.13c-2.63,0-4.31-1.2-6.43-4.57-.3-.48-.6-1-.89-1.43-1.05-1.69-2.14-3.44-3.32-5.1a13.15,13.15,0,0,0-2.53-2.47l-.19-.15a24.75,24.75,0,0,0-15.89-6.06,28.44,28.44,0,0,0-11.62,2.68,21.61,21.61,0,0,0-6.67,4.66,26.72,26.72,0,0,1,9.41-9.35,27.14,27.14,0,0,1,13.24-3.7l0-.59"/></clipPath><linearGradient id="linear-gradient" x1="251.69" y1="308.1" x2="317.45" y2="308.1" gradientTransform="matrix(1, 0, 0, -1, 0, 406)" gradientUnits="userSpaceOnUse"><stop offset="0" stop-color="#b3b3b3"/><stop offset="1" stop-color="#cdcdcd"/></linearGradient><clipPath id="clip-path-11"><path class="cls-1" d="M271.45,92.05h0c8.24,0,15.94,5,18.69,9.88l-.61.1a9,9,0,0,1-1.47.17,2.54,2.54,0,0,1-.65-.07,64.94,64.94,0,0,1-8-2.54c-3.51-1.38-7-2.63-10.84-2.63h-.32A21.18,21.18,0,0,0,252,104.67c1.89-4.91,10.29-11.45,16.5-12.4a18.67,18.67,0,0,1,2.92-.22"/></clipPath><linearGradient id="linear-gradient-2" x1="251.24" y1="307.07" x2="290.76" y2="307.07" gradientTransform="matrix(1, 0, 0, -1, 0, 406)" gradientUnits="userSpaceOnUse"><stop offset="0" stop-color="#c4c4c4"/><stop offset="1" stop-color="#d8d8d8"/></linearGradient><clipPath id="clip-path-12"><path class="cls-1" d="M71.06,181c-9.66-.41-30-.14-45-.1-6.38,0-13,0-20.44,0V397.84H63.26a169.37,169.37,0,0,0,21.09-1.17c14.94-1.89,27.83-6.32,39.42-13.53a92.89,92.89,0,0,0,35-39.41c6.85-14.29,10.45-31,11-51,0-1.89,0-3.76-.12-5.75-.06-1.37-.12-2.79-.13-4.2a115.93,115.93,0,0,0-1.76-18.21c-2-11.92-5.24-23.21-10.82-32.9-5.28-9.15-11-17.39-18.9-24.94a87.94,87.94,0,0,0-22.27-15.52S97.91,181.72,71.06,181Zm26.62,38.71a61.58,61.58,0,0,1,27.65,26.67c4.28,8.05,7,17.31,8.36,28.32a119.82,119.82,0,0,1,.72,19.88c-.67,14.75-3.68,27-9.2,37.49-7.13,13.54-17.54,23.15-30.93,28.55a61.8,61.8,0,0,1-22,4.84c-9.71.22-13.5.24-20.38.27l-7.19,0h0a8.07,8.07,0,0,1-1.15-.1l-.48-.06-1.78-.2V212.74h4.24c3.5,0,5.73,0,7.59,0,3.35,0,11.91.06,11.91.06C86.9,213.07,97.68,219.74,97.68,219.74Z"/></clipPath><clipPath id="clip-path-26"><path class="cls-1" d="M232.94,251.67c5.66,3.41,24.13,10.69,30.42,12.47,12.41,3.51,24.89,6.8,37.22,10.6a74.72,74.72,0,0,1,27,14.49A54.16,54.16,0,0,1,346,321.58a71.89,71.89,0,0,1,1.23,15.07c-.39,13.54-4.18,25.87-13.1,36.3a67.08,67.08,0,0,1-19.91,15.68,89.32,89.32,0,0,1-32.4,9.55,129.21,129.21,0,0,1-18.65.63c-14.22-.49-28-3-40.82-9.65-13.12-6.87-23.15-16.86-29.4-30.46a62.57,62.57,0,0,1-5.28-18.88,79.84,79.84,0,0,1-.15-9.14c1.87-.12,35.22-2.24,38.34-1.81.34,2.82.55,5.66,1,8.45a30,30,0,0,0,15.42,21.95c6.41,3.62,13.37,5.16,20.63,5.74a61.51,61.51,0,0,0,17.45-.95,34.07,34.07,0,0,0,17.09-8.57c5.76-5.48,7.92-12.31,7.48-20.09a36.19,36.19,0,0,0-1-6.46c-1.72-7.09-6.64-11.46-12.73-14.75-5.27-2.85-11-4.42-16.72-6-10.06-2.71-20.17-5.91-30.18-8.82-10.84-3.5-21.29-7.18-30.45-14.18a53.63,53.63,0,0,1-15.63-18.48,53,53,0,0,1-5.08-16.6"/></clipPath><clipPath id="clip-path-48"><path class="cls-1" d="M73,290a119.51,119.51,0,0,1,6.66-42.64A103,103,0,0,1,101.47,211a97.32,97.32,0,0,1,49.75-28.8,117.35,117.35,0,0,1,59.18,1.88A97.53,97.53,0,0,1,250,207.68c15.23,14.87,24.91,33.17,29.43,54.6a104.89,104.89,0,0,1,2.37,19.61c.06,3.34.34,6.69.26,10-.43,16.91-3.54,33.15-10.69,48.41a104.67,104.67,0,0,1-19,28.09,96.29,96.29,0,0,1-21.45,16.84,102.4,102.4,0,0,1-38.38,13,118.51,118.51,0,0,1-20.79.87,105.58,105.58,0,0,1-32.42-6.32A96.81,96.81,0,0,1,104.68,371c-15.38-15.11-24.87-33.77-29.29-55.44A111.31,111.31,0,0,1,73,290Zm170.55-.91c-.14-2.48-.27-5-.42-7.45a77.78,77.78,0,0,0-8.76-32,63.12,63.12,0,0,0-25.22-26.2,63.79,63.79,0,0,0-34.24-8,64.57,64.57,0,0,0-22.68,4.71,63.26,63.26,0,0,0-30.17,26c-7,11.34-10.32,24-11.12,37.37a93.42,93.42,0,0,0,1.72,24.58,72.24,72.24,0,0,0,16.8,34.1,59.86,59.86,0,0,0,21.87,15.61,67.35,67.35,0,0,0,42,3.27,60.56,60.56,0,0,0,31.25-18.32,67,67,0,0,0,13.15-21.35A89.27,89.27,0,0,0,243.59,289.08Z"/></clipPath><clipPath id="clip-path-266"><path class="cls-1" d="M341.9,320.93A73.48,73.48,0,0,1,343.5,336c-.41,14.52-4.54,26.29-12.63,36a65.7,65.7,0,0,1-19.32,15.59,85.23,85.23,0,0,1-31.67,9.56,123.38,123.38,0,0,1-18.36.64c-16-.57-28.74-3.64-39.95-9.65a63.1,63.1,0,0,1-28.52-30.28,63.92,63.92,0,0,1-5.11-18.68,101.14,101.14,0,0,1-.21-10.77,20.86,20.86,0,0,1,5.07-13,15.49,15.49,0,0,1,11.81-5.31c9.69,0,17.57,8.17,17.58,18.22h0c.1.9.2,1.8.29,2.7.2,2,.41,4,.76,6.07,1.81,10.61,7.32,18.65,16.39,23.9,6,3.49,12.86,5.45,21.47,6.15a61.68,61.68,0,0,0,18-1,35.61,35.61,0,0,0,18.07-9.3c5.86-5.71,8.57-13.16,8.08-22.13a23.88,23.88,0,0,0-1.08-5.14c-.2-.7-.4-1.38-.56-2Z"/></clipPath><clipPath id="clip-path-396"><path class="cls-1" d="M-1.18,397.85V171.6c.7-.06,1.32-.15,1.93-.15,24,0,47.9-.19,71.85.06a98.52,98.52,0,0,1,44.55,10.63,87.41,87.41,0,0,1,22.27,16.28,100.67,100.67,0,0,1,18.86,26.09,117.52,117.52,0,0,1,10.78,34.34,126.84,126.84,0,0,1,1.75,19c0,3.43.33,6.86.24,10.27-2.45,20.75-4,36-10.94,53.12-8,17.58-19.74,31.32-35,41.25a93.25,93.25,0,0,1-39.33,14.16A158.39,158.39,0,0,1,65,397.85q-31.65,0-63.3,0Zm38.78-37.1c.56.06,0,.16.39.15,12.25-.08,23.5,0,35.75-.31a56.92,56.92,0,0,0,20.8-4.81c12.83-5.43,22.54-15,29.24-28.32,5.85-11.64,8.2-24.37,8.77-37.57a125.41,125.41,0,0,0-.69-20c-1.17-10-3.5-19.53-8-28.32A58.76,58.76,0,0,0,98,215.07c-9.95-5.13-20.54-6.77-31.35-6.94-9.62-.15-18.24,0-27.86,0H37.59C37.6,259.06,37.6,309.78,37.6,360.75Z"/></clipPath><clipPath id="clip-path-398"><path class="cls-1" d="M5.62,398.09H63.25c.1,0,14.18-.3,21.09-1.17,14.94-1.89,27.83-6.32,39.42-13.53a92.82,92.82,0,0,0,35-39.41c6.85-14.29,10.45-31,11-51,0-1.89,0-3.77-.12-5.75-.06-1.37-.12-2.79-.13-4.2a115.82,115.82,0,0,0-1.76-18.21,109.39,109.39,0,0,0-10.83-32.9A95.58,95.58,0,0,0,138,207a88.15,88.15,0,0,0-22.27-15.53,103.17,103.17,0,0,0-44.7-10.16c-17.05-.17-30-.14-44.93-.1-6.4,0-13.09,0-20.51,0Z"/></clipPath><clipPath id="clip-path-412"><path class="cls-1" d="M191.44,251.07A68.2,68.2,0,0,1,192.82,225a53.31,53.31,0,0,1,12.82-23.33c10.9-11.65,24.56-17.82,40-20.6a123.85,123.85,0,0,1,16.09-1.61,109.41,109.41,0,0,1,24.39,1.61,74.19,74.19,0,0,1,32.78,14.08,55.65,55.65,0,0,1,21.83,36.74,43.14,43.14,0,0,1,.75,6.5,37.22,37.22,0,0,1-.29,4.77c-1,11.41-9.86,16.45-18.16,16.7-8.87.7-18.47-7.35-19.89-16.91a92.17,92.17,0,0,0-1.88-9.44c-2.59-8.41-8.37-14-16.22-17.46a40.49,40.49,0,0,0-14.4-3.31c-6.32-.36-12.6-.12-18.71,1.85a29,29,0,0,0-13.5,8.65c-4.19,4.59-6.66,8.44-6.6,18.51.33,7.73,4.74,14.09,4.94,15.25"/></clipPath></defs><title>nxdos-logo-optimized</title><g id="logo"><g id="nx_logo_copy_4" data-name="nx logo copy 4"><g class="cls-2"><path id="st5-2" class="cls-3" d="M155.81,3.15a2.93,2.93,0,0,0-.2.27,1,1,0,0,0,0,.18c0,.12,0,.24,0,.36q0,51.54,0,103.08c0,.18,0,.36,0,.54a.33.33,0,0,1,0,.17.22.22,0,0,1-.11.12,1.29,1.29,0,0,1-.29,0c-.36-.51-.75-1-1.12-1.6Q142.48,89.27,131,72.2L105,33.68C98.46,24,91.9,14.3,85.42,4.58A3.24,3.24,0,0,0,82.29,3c-12.38.06-24.77,0-37.16,0H42.92c0,56.39,0,111.78,0,168H84.08c.11-.18.14-.22.17-.28a.84.84,0,0,0,0-.17c0-.06,0-.12,0-.18s0-.12,0-.18v-.36c0-33.82,0-66.88,0-100.7v-.72a2,2,0,0,1,.06-.35A.22.22,0,0,1,84.5,68a.53.53,0,0,1,.19,0c.09.07.22.12.28.21q7.71,11.31,15.41,22.63l31.8,46.81q11.26,16.56,22.5,33.13a2.6,2.6,0,0,0,2.51,1.25q19.17,0,38.34,0c.56,0,1.12-.08,1.66-.12V3.16Z"/></g><g class="cls-2"><path id="st6-1" class="cls-4" d="M157.19,172.78a3.57,3.57,0,0,1-3.33-1.69q-7.92-11.75-15.91-23.44L99.56,91.15,85.35,71.25q0,23.4,0,46.67c0,17.24,0,34.47,0,51.79v2.17H41.9v-1c0-28.12,0-56,0-83.93s0-55.9,0-84.11v-1h15.6c8.12,0,16.51,0,24.77,0h0a4.19,4.19,0,0,1,3.92,2C91.42,11.58,96.71,19.42,101.84,27l52.7,78.15V2h43.67V172.56l-.92.07-.49,0c-.41,0-.83.08-1.25.08H182.78q-12.78,0-25.56,0ZM83.37,65,101.2,90l38.41,56.52q8,11.72,15.91,23.45a1.64,1.64,0,0,0,1.67.81h0q12.78,0,25.56,0h12.78l.67,0V4H156.55V106.83c0,.19,0,.39,0,.58a1.58,1.58,0,0,1-.12.54,1.22,1.22,0,0,1-1,.72l-.74.12-.72-1-.77-1.1-53-78.54C95.06,20.53,89.76,12.67,84.6,4.92a2.3,2.3,0,0,0-2.29-1.11c-8.26,0-16.66,0-24.78,0H43.93c0,27.87,0,55.5,0,83.11s0,55.15,0,82.93H83.35v-.16q0-26,0-51.79,0-24.63,0-49.34Zm71.16,42.3Z"/></g><g class="cls-2"><g class="cls-5"><path id="st6-2" class="cls-4" d="M157.19,172.78a3.57,3.57,0,0,1-3.33-1.69q-7.92-11.75-15.91-23.44L99.56,91.15,85.36,71c0,15.69,0,31.3,0,46.92,0,17.24,0,34.47,0,51.79v2.17H41.9v-1c0-28.12,0-56,0-83.93s0-55.9,0-84.11v-1h15.6c8.12,0,16.51,0,24.77,0h0a4.19,4.19,0,0,1,3.92,2C91.42,11.58,96.71,19.42,101.84,27l52.7,78.15V2h43.67V172.56l-.92.07-.49,0c-.41,0-.83.08-1.25.08H182.78q-12.78,0-25.56,0ZM83.37,64.72,101.21,90l38.4,56.51q8,11.72,15.91,23.45a1.64,1.64,0,0,0,1.67.81h0q12.78,0,25.56,0h12.78l.67,0V4H156.55V106.83c0,.19,0,.39,0,.58a1.58,1.58,0,0,1-.12.54,1.22,1.22,0,0,1-1,.72l-.74.12-.72-1-.77-1.1-53-78.54C95.06,20.53,89.76,12.67,84.6,4.92a2.3,2.3,0,0,0-2.29-1.11c-8.26,0-16.66,0-24.78,0H43.93c0,27.87,0,55.5,0,83.11s0,55.15,0,82.93H83.35v-.16q0-26,0-51.79,0-24.63,0-49.34Zm71.16,42.61Z"/></g></g><g class="cls-2"><g class="cls-6"><path id="st9-1" class="cls-7" d="M85.06,6a2.79,2.79,0,0,0-1.63-1.12H44.55q0,83.21,0,166.3H63.63c.11-.17,0-132.82,0-132.82v-.71a2.14,2.14,0,0,1,.06-.35.22.22,0,0,1,.09-.14.53.53,0,0,1,.19,0c.09.07.22.12.28.21Q72,48.47,79.66,59.6l31.8,46q11.27,16.29,22.5,32.59l20.63,30.4,19.14-31.54Z"/></g></g><g class="cls-2"><rect id="st10-1" class="cls-7" x="155.61" y="3.15" width="41.61" height="42.12"/></g><g class="cls-2"><path id="st6-3" class="cls-4" d="M198.22,47l-43.67-.63V2h43.67Zm-41.68-2.61,39.68.58V4H156.55Z"/><path id="st9-2" class="cls-7" d="M191.24,108.94l-34.75-51.5L156.34,107a1.92,1.92,0,0,1-.24,1c-.3.41-.48.53-.79.55h-.47c-.69,0-1.23-.94-1.23-.94l-4.55,7.25,4.34,52.35Z"/></g><g class="cls-2"><path id="st6-5" class="cls-4" d="M157.19,172.78a3.57,3.57,0,0,1-3.33-1.69q-7.92-11.75-15.91-23.44L99.56,91.15,85.35,71.25q0,23.4,0,46.67c0,17.24,0,34.47,0,51.79v2.17H41.9v-1c0-28.12,0-56,0-83.93s0-55.9,0-84.11v-1h15.6c8.12,0,16.51,0,24.77,0h0a4.19,4.19,0,0,1,3.92,2C91.42,11.58,96.71,19.42,101.84,27l52.7,78.15V2h43.67V172.56l-.92.07-.49,0c-.41,0-.83.08-1.25.08H182.78q-12.78,0-25.56,0ZM83.37,65,101.2,90l38.41,56.52q8,11.72,15.91,23.45a1.64,1.64,0,0,0,1.67.81h0q12.78,0,25.56,0h12.78l.67,0V4H156.55V106.83c0,.19,0,.39,0,.58a1.58,1.58,0,0,1-.12.54,1.22,1.22,0,0,1-1,.72l-.74.12-.72-1-.77-1.1-53-78.54C95.06,20.53,89.76,12.67,84.6,4.92a2.3,2.3,0,0,0-2.29-1.11c-8.26,0-16.66,0-24.78,0H43.93c0,27.87,0,55.5,0,83.11s0,55.15,0,82.93H83.35v-.16q0-26,0-51.79,0-24.63,0-49.34Zm71.16,42.3Z"/></g><g id="Nx_Logo_copy_4-2" data-name="Nx Logo copy 4"><g id="RZBMdf.tif"><path id="st15-1" class="cls-8" d="M249,116.41a14.6,14.6,0,0,1-2.5-10.34c1.19-9.07,5.19-16.56,12.51-22a30.17,30.17,0,0,1,9.52-4.67,26.09,26.09,0,0,1,17.5.76c4.66,1.9,7.76,5.25,10.21,9.45,1.5,2.56,2.84,5.34,5.45,7a65.56,65.56,0,0,0,7.19,3.78c1.86.88,3.89,1.39,5.72,2.3a8.76,8.76,0,0,1,5.05,7.71,25.59,25.59,0,0,0,.43,3.49c.64,3.15,5.11,6.86,9,5.51s6.07-3.79,6.07-8.53a65.91,65.91,0,0,0-2.58-18,66.68,66.68,0,0,0-8.55-18.55,63.94,63.94,0,0,0-13.87-15,40.24,40.24,0,0,0-6.55-4.42,70.08,70.08,0,0,0-11.6-5.07c-11.49-3.4-23-3.4-34.39.8a63.23,63.23,0,0,0-11.16,5,41.76,41.76,0,0,0-6.93,5.08c-2.58,2.19-4.77,4.73-7.19,7.12A19.64,19.64,0,0,0,230.59,70c-1.32,1.76-2.77,3.14-3.94,5.45M335.28,121c-1.7,1.25-3.41,2.47-5.09,3.73a20.86,20.86,0,0,0-3,2.45,3.12,3.12,0,0,0-.4,3.63,3.32,3.32,0,0,0,3.61,1.45,4.2,4.2,0,0,0,2.93-2.19A15.34,15.34,0,0,0,335.28,121Z"/><path id="st5-1" class="cls-3" d="M250.08,117.21l34.82,54.43c-.68.08-1.13.19-1.58.19-12.68,0-25.36,0-38,0a2.32,2.32,0,0,1-2.24-1.4q-11.31-18.6-22.67-37.17c-.21-.35-.46-.67-.8-1.19-.34.51-.6.87-.82,1.26q-11,18.56-22,37.13a2.49,2.49,0,0,1-2.47,1.37c-12.19-.05-24.38,0-36.57,0-.53,0-1.06-.1-1.91-.16l40.61-62.62L155.57,48.61h41.82l24,40.45v0a47,47,0,0,1,5.26-13.68,58.11,58.11,0,0,1,3.63-5.25,31.43,31.43,0,0,1,2.1-2.48,95.7,95.7,0,0,1,7.22-6.9,57.94,57.94,0,0,1,7-5,57.22,57.22,0,0,1,11-5.09,53.25,53.25,0,0,1,34.39-.8,70.08,70.08,0,0,1,11.6,5.07,40.24,40.24,0,0,1,6.55,4.42,63.94,63.94,0,0,1,13.87,15,66.81,66.81,0,0,1,8.55,18.55,65.53,65.53,0,0,1,2.58,18c0,4.73-2.19,7.19-6.07,8.52s-8.39-2.36-9-5.51a25.59,25.59,0,0,1-.43-3.49,8.75,8.75,0,0,0-5-7.71c-1.83-.92-3.86-1.43-5.72-2.3a66.48,66.48,0,0,1-7.19-3.78c-2.6-1.64-3.95-4.42-5.45-7-2.45-4.2-5.55-7.55-10.21-9.45a26.15,26.15,0,0,0-17.5-.76A30.38,30.38,0,0,0,259,84.09c-7.32,5.43-10,12.26-11.21,21.33-.51,3.86-.34,7.58,1.75,10.81Z"/><path id="st15-2" class="cls-8" d="M335.28,121a15.34,15.34,0,0,1-1.94,9.07,4.2,4.2,0,0,1-2.93,2.19,3.32,3.32,0,0,1-3.61-1.45,3.09,3.09,0,0,1,.4-3.63,21.56,21.56,0,0,1,3-2.45C331.87,123.47,333.57,122.24,335.28,121Z"/></g></g><g class="cls-9"><path id="st16-1" class="cls-10" d="M317.25,114a12.49,12.49,0,0,1-5.88-2.71c-.22-.19-.41-.42-.61-.63a7.94,7.94,0,0,0-7.49-2.38c-4.16.64-6.25-1-8.57-4.72-1.37-2.19-2.7-4.4-4.2-6.51a13.83,13.83,0,0,0-2.61-2.51C279.63,87.82,270.52,87,261,91.29a20.67,20.67,0,0,0-8.53,7,6.19,6.19,0,0,1-.47.55l-.31-.17c.61-1.18,1.13-2.42,1.84-3.53a27.31,27.31,0,0,1,9.67-9.61c5.95-3.32,12.32-4.69,19.09-3.14a17.81,17.81,0,0,1,12.33,9.65A22.4,22.4,0,0,0,308,103.57a42.27,42.27,0,0,1,4.92,1.88C316.52,107.23,318,109.94,317.25,114Z"/></g><g class="cls-11"><path id="st17-1" class="cls-12" d="M290.76,102.25c-1.24.11-2.44.52-3.46.26a67.08,67.08,0,0,1-8.08-2.56c-3.56-1.4-7.09-2.67-11-2.6a20.7,20.7,0,0,0-16.2,7.93c-.24.28-.47.57-.77.94.36-5.27,10.26-13.29,17.21-14.35C278.1,90.4,287.87,96.43,290.76,102.25Z"/></g></g><g id="Layer_20_copy_10" data-name="Layer 20 copy 10"><path class="cls-13" d="M3.62,400.09V179.36c.71-.06,1.35-.15,2-.15,24.49,0,41-.19,65.48.06a104.69,104.69,0,0,1,45.56,10.37,89.76,89.76,0,0,1,22.78,15.88A98.18,98.18,0,0,1,158.71,231a110.9,110.9,0,0,1,11,33.5A119.51,119.51,0,0,1,171.53,283c0,3.34.34,6.69.25,10-.49,18.07-3.39,35.57-11.19,51.82a94.42,94.42,0,0,1-35.76,40.25c-12.45,7.75-26,12-40.22,13.81-7.09.9-21.34,1.19-21.34,1.19H3.62Zm39.67-36.43c.57.06,1,.15,1.42.15,12.53-.08,15,0,27.54-.31a60.28,60.28,0,0,0,21.28-4.7c13.12-5.29,23-14.61,29.91-27.63,6-11.35,8.39-23.78,9-36.65A116.14,116.14,0,0,0,131.7,275c-1.19-9.73-3.58-19.05-8.14-27.63a58.62,58.62,0,0,0-26.5-25.81c-10.18-5-21-6.6-32.06-6.77-9.84-.15-9.63,0-19.47,0H43.29Z"/><g class="cls-14"><polygon class="cls-15" points="119.34 192.61 119.34 181.22 107.94 181.22 107.94 192.61 96.55 192.61 96.55 204.01 85.15 204.01 73.76 204.01 62.36 204.01 62.36 215.4 73.76 215.4 73.76 226.8 85.15 226.8 96.55 226.8 107.94 226.8 107.94 215.4 107.94 204.01 119.34 204.01 119.34 192.61"/><rect class="cls-16" x="130.73" y="215.4" width="11.4" height="11.4"/><rect class="cls-16" x="119.34" y="226.8" width="11.4" height="11.4"/></g><g class="cls-14"><rect class="cls-17" x="96.55" y="181.22" width="11.4" height="11.4"/></g><g class="cls-14"><rect class="cls-18" x="107.94" y="181.22" width="11.4" height="11.4"/></g><g class="cls-14"><rect class="cls-19" x="62.36" y="192.61" width="11.4" height="11.4"/></g><g class="cls-14"><polygon class="cls-20" points="85.15 192.61 73.76 192.61 73.76 204.01 85.15 204.01 96.55 204.01 96.55 192.61 85.15 192.61"/></g><g class="cls-14"><rect class="cls-21" x="96.55" y="192.61" width="11.4" height="11.4"/></g><g class="cls-14"><rect class="cls-22" x="50.97" y="204.01" width="11.4" height="11.4"/></g><g class="cls-14"><rect class="cls-1" x="62.36" y="204.01" width="11.4" height="11.4"/></g><g class="cls-14"><rect class="cls-23" x="73.76" y="204.01" width="11.4" height="11.4"/></g><g class="cls-14"><rect class="cls-15" x="85.15" y="204.01" width="11.4" height="11.4"/></g><g class="cls-14"><rect class="cls-16" x="142.13" y="215.4" width="11.4" height="11.4"/></g><g class="cls-14"><rect class="cls-16" x="130.73" y="226.8" width="11.4" height="11.4"/></g><g class="cls-14"><rect class="cls-16" x="119.34" y="238.19" width="11.4" height="11.4"/></g><g class="cls-14"><rect class="cls-18" x="62.36" y="204.01" width="11.4" height="11.4"/></g><path class="cls-24" d="M243.47,257.81c5.66,3.41,11.84,5.47,18.13,7.25,12.41,3.51,24.89,6.8,37.22,10.6a74.72,74.72,0,0,1,27,14.49,54.16,54.16,0,0,1,18.42,32.35,71.89,71.89,0,0,1,1.23,15.07c-.39,13.54-4.18,25.87-13.1,36.3a67.08,67.08,0,0,1-19.91,15.68,89.32,89.32,0,0,1-32.4,9.55,129.21,129.21,0,0,1-18.65.63c-14.22-.49-28-3-40.82-9.65-13.12-6.87-23.15-16.86-29.4-30.46a62.57,62.57,0,0,1-5.28-18.88,79.84,79.84,0,0,1-.15-9.14c1.87-.12,35.22-2.24,38.34-1.81.34,2.82.55,5.66,1,8.45a30,30,0,0,0,15.42,21.95c6.41,3.62,13.37,5.16,20.63,5.74a61.51,61.51,0,0,0,17.45-.95,34.07,34.07,0,0,0,17.09-8.57c5.76-5.48,7.92-12.31,7.48-20.09a36.19,36.19,0,0,0-1-6.46c-1.72-7.09-6.64-11.46-12.73-14.75-5.27-2.85-11-4.42-16.72-6-10.06-2.71-20.15-5.35-30.16-8.25-10.95-3.18-21.3-7.74-30.46-14.74a53.63,53.63,0,0,1-15.63-18.48,51,51,0,0,1-5.08-16.6"/></g><g class="cls-25"><rect class="cls-26" x="199.1" y="272.38" width="11.4" height="11.4"/><polygon class="cls-26" points="221.89 283.77 210.5 283.77 210.5 295.17 221.89 295.17 221.89 306.56 233.29 306.56 244.68 306.56 244.68 295.17 244.68 283.77 233.29 283.77 221.89 283.77"/><polygon class="cls-26" points="290.26 306.56 290.26 295.17 278.87 295.17 278.87 306.56 278.87 317.96 290.26 317.96 290.26 329.35 301.66 329.35 301.66 317.96 301.66 306.56 290.26 306.56"/></g><g class="cls-25"><rect class="cls-27" x="233.29" y="249.59" width="11.4" height="11.4"/></g><g class="cls-25"><rect class="cls-1" x="187.71" y="260.98" width="11.4" height="11.4"/></g><g class="cls-25"><rect class="cls-28" x="199.1" y="260.98" width="11.4" height="11.4"/></g><g class="cls-25"><rect class="cls-27" x="221.89" y="260.98" width="11.4" height="11.4"/></g><g class="cls-25"><rect class="cls-29" x="210.5" y="272.38" width="11.4" height="11.4"/></g><g class="cls-25"><rect class="cls-30" x="221.89" y="272.38" width="11.4" height="11.4"/></g><g class="cls-25"><polygon class="cls-31" points="233.29 260.98 233.29 272.38 233.29 283.77 244.68 283.77 244.68 272.38 244.68 260.98 233.29 260.98"/></g><g class="cls-25"><rect class="cls-32" x="221.89" y="283.77" width="11.4" height="11.4"/></g><g class="cls-25"><rect class="cls-31" x="278.87" y="283.77" width="11.4" height="11.4"/></g><g class="cls-25"><rect class="cls-33" x="290.26" y="295.17" width="11.4" height="11.4"/></g><g class="cls-25"><rect class="cls-1" x="187.71" y="260.98" width="11.4" height="11.4"/></g><g class="cls-25"><rect class="cls-28" x="199.1" y="260.98" width="11.4" height="11.4"/></g><g class="cls-25"><rect class="cls-27" x="221.89" y="260.98" width="11.4" height="11.4"/></g><g class="cls-25"><polygon class="cls-31" points="233.29 249.59 233.29 260.98 233.29 272.38 244.68 272.38 244.68 260.98 244.68 249.59 233.29 249.59"/></g><g class="cls-25"><rect class="cls-29" x="210.5" y="272.38" width="11.4" height="11.4"/></g><g class="cls-25"><rect class="cls-30" x="221.89" y="272.38" width="11.4" height="11.4"/></g><g class="cls-25"><rect class="cls-34" x="233.29" y="272.38" width="11.4" height="11.4"/></g><g class="cls-25"><rect class="cls-31" x="278.87" y="283.77" width="11.4" height="11.4"/></g><g class="cls-25"><rect class="cls-33" x="290.26" y="295.17" width="11.4" height="11.4"/></g><g class="cls-25"><rect class="cls-35" x="187.71" y="260.98" width="11.4" height="11.4"/></g><g class="cls-25"><rect class="cls-27" x="233.29" y="249.59" width="11.4" height="11.4"/></g><g id="O_background_copy_12" data-name="O background copy 12"><g class="cls-36"><rect class="cls-37" x="56.9" y="156.37" width="267.76" height="259.15"/></g><g class="cls-36"><rect class="cls-37" x="153.52" y="169.82" width="11.4" height="11.4"/></g><g class="cls-36"><rect class="cls-38" x="164.92" y="169.82" width="11.4" height="11.4"/></g><g class="cls-36"><rect class="cls-39" x="176.31" y="169.82" width="11.4" height="11.4"/></g><g class="cls-36"><rect class="cls-40" x="187.71" y="169.82" width="11.4" height="11.4"/></g><g class="cls-36"><rect class="cls-37" x="119.34" y="181.22" width="11.4" height="11.4"/></g><g class="cls-36"><rect class="cls-38" x="130.73" y="181.22" width="11.4" height="11.4"/></g><g class="cls-36"><rect class="cls-37" x="142.13" y="181.22" width="11.4" height="11.4"/></g><g class="cls-36"><rect class="cls-38" x="153.52" y="181.22" width="11.4" height="11.4"/></g><g class="cls-36"><rect class="cls-37" x="164.92" y="181.22" width="11.4" height="11.4"/></g><g class="cls-36"><rect class="cls-38" x="176.31" y="181.22" width="11.4" height="11.4"/></g><g class="cls-36"><rect class="cls-37" x="187.71" y="181.22" width="11.4" height="11.4"/></g><g class="cls-36"><rect class="cls-40" x="199.1" y="181.22" width="11.4" height="11.4"/></g><g class="cls-36"><rect class="cls-41" x="210.5" y="181.22" width="11.4" height="11.4"/></g><g class="cls-36"><rect class="cls-38" x="119.34" y="192.61" width="11.4" height="11.4"/></g><g class="cls-36"><rect class="cls-37" x="130.73" y="192.61" width="11.4" height="11.4"/></g><g class="cls-36"><rect class="cls-38" x="142.13" y="192.61" width="11.4" height="11.4"/></g><g class="cls-36"><rect class="cls-37" x="153.52" y="192.61" width="11.4" height="11.4"/></g><g class="cls-36"><rect class="cls-38" x="164.92" y="192.61" width="11.4" height="11.4"/></g><g class="cls-36"><rect class="cls-37" x="176.31" y="192.61" width="11.4" height="11.4"/></g><g class="cls-36"><rect class="cls-40" x="187.71" y="192.61" width="11.4" height="11.4"/></g><g class="cls-36"><rect class="cls-42" x="199.1" y="192.61" width="11.4" height="11.4"/></g><g class="cls-36"><rect class="cls-43" x="210.5" y="192.61" width="11.4" height="11.4"/></g><g class="cls-36"><rect class="cls-38" x="107.94" y="204.01" width="11.4" height="11.4"/></g><g class="cls-36"><rect class="cls-37" x="119.34" y="204.01" width="11.4" height="11.4"/></g><g class="cls-36"><rect class="cls-38" x="130.73" y="204.01" width="11.4" height="11.4"/></g><g class="cls-36"><rect class="cls-37" x="142.13" y="204.01" width="11.4" height="11.4"/></g><g class="cls-36"><rect class="cls-38" x="153.52" y="204.01" width="11.4" height="11.4"/></g><g class="cls-36"><rect class="cls-37" x="164.92" y="204.01" width="11.4" height="11.4"/></g><g class="cls-36"><rect class="cls-44" x="176.31" y="204.01" width="11.4" height="11.4"/></g><g class="cls-36"><rect class="cls-45" x="187.71" y="204.01" width="11.4" height="11.4"/></g><g class="cls-36"><rect class="cls-43" x="199.1" y="204.01" width="11.4" height="11.4"/></g><g class="cls-36"><rect class="cls-37" x="85.15" y="215.4" width="11.4" height="11.4"/></g><g class="cls-36"><rect class="cls-38" x="96.55" y="215.4" width="11.4" height="11.4"/></g><g class="cls-36"><rect class="cls-37" x="107.94" y="215.4" width="11.4" height="11.4"/></g><g class="cls-36"><rect class="cls-38" x="119.34" y="215.4" width="11.4" height="11.4"/></g><g class="cls-36"><rect class="cls-37" x="130.73" y="215.4" width="11.4" height="11.4"/></g><g class="cls-36"><rect class="cls-38" x="142.13" y="215.4" width="11.4" height="11.4"/></g><g class="cls-36"><rect class="cls-37" x="153.52" y="215.4" width="11.4" height="11.4"/></g><g class="cls-36"><rect class="cls-40" x="164.92" y="215.4" width="11.4" height="11.4"/></g><g class="cls-36"><rect class="cls-46" x="176.31" y="215.4" width="11.4" height="11.4"/></g><g class="cls-36"><rect class="cls-43" x="187.71" y="215.4" width="11.4" height="11.4"/></g><g class="cls-36"><rect class="cls-47" x="233.29" y="215.4" width="11.4" height="11.4"/></g><g class="cls-36"><rect class="cls-37" x="244.68" y="215.4" width="11.4" height="11.4"/></g><g class="cls-36"><rect class="cls-38" x="256.08" y="215.4" width="11.4" height="11.4"/></g><g class="cls-36"><rect class="cls-37" x="73.76" y="226.8" width="11.4" height="11.4"/></g><g class="cls-36"><rect class="cls-38" x="85.15" y="226.8" width="11.4" height="11.4"/></g><g class="cls-36"><rect class="cls-37" x="96.55" y="226.8" width="11.4" height="11.4"/></g><g class="cls-36"><rect class="cls-38" x="107.94" y="226.8" width="11.4" height="11.4"/></g><g class="cls-36"><rect class="cls-37" x="119.34" y="226.8" width="11.4" height="11.4"/></g><g class="cls-36"><rect class="cls-38" x="130.73" y="226.8" width="11.4" height="11.4"/></g><g class="cls-36"><rect class="cls-47" x="221.89" y="226.8" width="11.4" height="11.4"/></g><g class="cls-36"><rect class="cls-37" x="233.29" y="226.8" width="11.4" height="11.4"/></g><g class="cls-36"><rect class="cls-38" x="244.68" y="226.8" width="11.4" height="11.4"/></g><g class="cls-36"><rect class="cls-37" x="256.08" y="226.8" width="11.4" height="11.4"/></g><g class="cls-36"><rect class="cls-38" x="267.47" y="226.8" width="11.4" height="11.4"/></g><g class="cls-36"><rect class="cls-38" x="73.76" y="238.19" width="11.4" height="11.4"/></g><g class="cls-36"><rect class="cls-37" x="85.15" y="238.19" width="11.4" height="11.4"/></g><g class="cls-36"><rect class="cls-38" x="96.55" y="238.19" width="11.4" height="11.4"/></g><g class="cls-36"><rect class="cls-37" x="107.94" y="238.19" width="11.4" height="11.4"/></g><g class="cls-36"><rect class="cls-38" x="119.34" y="238.19" width="11.4" height="11.4"/></g><g class="cls-36"><rect class="cls-37" x="221.89" y="238.19" width="11.4" height="11.4"/></g><g class="cls-36"><rect class="cls-38" x="233.29" y="238.19" width="11.4" height="11.4"/></g><g class="cls-36"><rect class="cls-37" x="244.68" y="238.19" width="11.4" height="11.4"/></g><g class="cls-36"><rect class="cls-38" x="256.08" y="238.19" width="11.4" height="11.4"/></g><g class="cls-36"><rect class="cls-37" x="267.47" y="238.19" width="11.4" height="11.4"/></g><g class="cls-36"><rect class="cls-37" x="73.76" y="249.59" width="11.4" height="11.4"/></g><g class="cls-36"><rect class="cls-38" x="85.15" y="249.59" width="11.4" height="11.4"/></g><g class="cls-36"><rect class="cls-37" x="96.55" y="249.59" width="11.4" height="11.4"/></g><g class="cls-36"><rect class="cls-38" x="107.94" y="249.59" width="11.4" height="11.4"/></g><g class="cls-36"><rect class="cls-37" x="119.34" y="249.59" width="11.4" height="11.4"/></g><g class="cls-36"><rect class="cls-38" x="221.89" y="249.59" width="11.4" height="11.4"/></g><g class="cls-36"><rect class="cls-37" x="233.29" y="249.59" width="11.4" height="11.4"/></g><g class="cls-36"><rect class="cls-38" x="244.68" y="249.59" width="11.4" height="11.4"/></g><g class="cls-36"><rect class="cls-37" x="256.08" y="249.59" width="11.4" height="11.4"/></g><g class="cls-36"><rect class="cls-38" x="267.47" y="249.59" width="11.4" height="11.4"/></g><g class="cls-36"><rect class="cls-37" x="62.36" y="260.98" width="11.4" height="11.4"/></g><g class="cls-36"><rect class="cls-38" x="73.76" y="260.98" width="11.4" height="11.4"/></g><g class="cls-36"><rect class="cls-37" x="85.15" y="260.98" width="11.4" height="11.4"/></g><g class="cls-36"><rect class="cls-38" x="96.55" y="260.98" width="11.4" height="11.4"/></g><g class="cls-36"><rect class="cls-37" x="107.94" y="260.98" width="11.4" height="11.4"/></g><g class="cls-36"><rect class="cls-38" x="233.29" y="260.98" width="11.4" height="11.4"/></g><g class="cls-36"><rect class="cls-37" x="244.68" y="260.98" width="11.4" height="11.4"/></g><g class="cls-36"><rect class="cls-38" x="256.08" y="260.98" width="11.4" height="11.4"/></g><g class="cls-36"><rect class="cls-37" x="267.47" y="260.98" width="11.4" height="11.4"/></g><g class="cls-36"><rect class="cls-38" x="278.87" y="260.98" width="11.4" height="11.4"/></g><g class="cls-36"><rect class="cls-38" x="62.36" y="272.38" width="11.4" height="11.4"/></g><g class="cls-36"><rect class="cls-37" x="73.76" y="272.38" width="11.4" height="11.4"/></g><g class="cls-36"><rect class="cls-38" x="85.15" y="272.38" width="11.4" height="11.4"/></g><g class="cls-36"><rect class="cls-37" x="96.55" y="272.38" width="11.4" height="11.4"/></g><g class="cls-36"><rect class="cls-38" x="107.94" y="272.38" width="11.4" height="11.4"/></g><g class="cls-36"><rect class="cls-37" x="233.29" y="272.38" width="11.4" height="11.4"/></g><g class="cls-36"><rect class="cls-38" x="244.68" y="272.38" width="11.4" height="11.4"/></g><g class="cls-36"><rect class="cls-37" x="256.08" y="272.38" width="11.4" height="11.4"/></g><g class="cls-36"><rect class="cls-38" x="267.47" y="272.38" width="11.4" height="11.4"/></g><g class="cls-36"><rect class="cls-37" x="278.87" y="272.38" width="11.4" height="11.4"/></g><g class="cls-36"><rect class="cls-37" x="62.36" y="283.77" width="11.4" height="11.4"/></g><g class="cls-36"><rect class="cls-38" x="73.76" y="283.77" width="11.4" height="11.4"/></g><g class="cls-36"><rect class="cls-37" x="85.15" y="283.77" width="11.4" height="11.4"/></g><g class="cls-36"><rect class="cls-38" x="96.55" y="283.77" width="11.4" height="11.4"/></g><g class="cls-36"><rect class="cls-37" x="244.68" y="283.77" width="11.4" height="11.4"/></g><g class="cls-36"><rect class="cls-38" x="256.08" y="283.77" width="11.4" height="11.4"/></g><g class="cls-36"><rect class="cls-37" x="267.47" y="283.77" width="11.4" height="11.4"/></g><g class="cls-36"><rect class="cls-38" x="278.87" y="283.77" width="11.4" height="11.4"/></g><g class="cls-36"><rect class="cls-38" x="62.36" y="295.17" width="11.4" height="11.4"/></g><g class="cls-36"><rect class="cls-37" x="73.76" y="295.17" width="11.4" height="11.4"/></g><g class="cls-36"><rect class="cls-38" x="85.15" y="295.17" width="11.4" height="11.4"/></g><g class="cls-36"><rect class="cls-37" x="96.55" y="295.17" width="11.4" height="11.4"/></g><g class="cls-36"><rect class="cls-40" x="107.94" y="295.17" width="11.4" height="11.4"/></g><g class="cls-36"><rect class="cls-48" x="233.29" y="295.17" width="11.4" height="11.4"/></g><g class="cls-36"><rect class="cls-38" x="244.68" y="295.17" width="11.4" height="11.4"/></g><g class="cls-36"><rect class="cls-37" x="256.08" y="295.17" width="11.4" height="11.4"/></g><g class="cls-36"><rect class="cls-38" x="267.47" y="295.17" width="11.4" height="11.4"/></g><g class="cls-36"><rect class="cls-37" x="278.87" y="295.17" width="11.4" height="11.4"/></g><g class="cls-36"><rect class="cls-37" x="62.36" y="306.56" width="11.4" height="11.4"/></g><g class="cls-36"><rect class="cls-38" x="73.76" y="306.56" width="11.4" height="11.4"/></g><g class="cls-36"><rect class="cls-37" x="85.15" y="306.56" width="11.4" height="11.4"/></g><g class="cls-36"><rect class="cls-38" x="96.55" y="306.56" width="11.4" height="11.4"/></g><g class="cls-36"><rect class="cls-37" x="107.94" y="306.56" width="11.4" height="11.4"/></g><g class="cls-36"><rect class="cls-49" x="233.29" y="306.56" width="11.4" height="11.4"/></g><g class="cls-36"><rect class="cls-37" x="244.68" y="306.56" width="11.4" height="11.4"/></g><g class="cls-36"><rect class="cls-38" x="256.08" y="306.56" width="11.4" height="11.4"/></g><g class="cls-36"><rect class="cls-37" x="267.47" y="306.56" width="11.4" height="11.4"/></g><g class="cls-36"><rect class="cls-38" x="278.87" y="306.56" width="11.4" height="11.4"/></g><g class="cls-36"><rect class="cls-37" x="73.76" y="317.96" width="11.4" height="11.4"/></g><g class="cls-36"><rect class="cls-38" x="85.15" y="317.96" width="11.4" height="11.4"/></g><g class="cls-36"><rect class="cls-37" x="96.55" y="317.96" width="11.4" height="11.4"/></g><g class="cls-36"><rect class="cls-50" x="107.94" y="317.96" width="11.4" height="11.4"/></g><g class="cls-36"><rect class="cls-51" x="119.34" y="317.96" width="11.4" height="11.4"/></g><g class="cls-36"><rect class="cls-52" x="221.89" y="317.96" width="11.4" height="11.4"/></g><g class="cls-36"><rect class="cls-53" x="233.29" y="317.96" width="11.4" height="11.4"/></g><g class="cls-36"><rect class="cls-38" x="244.68" y="317.96" width="11.4" height="11.4"/></g><g class="cls-36"><rect class="cls-37" x="256.08" y="317.96" width="11.4" height="11.4"/></g><g class="cls-36"><rect class="cls-38" x="267.47" y="317.96" width="11.4" height="11.4"/></g><g class="cls-36"><rect class="cls-38" x="73.76" y="329.35" width="11.4" height="11.4"/></g><g class="cls-36"><rect class="cls-37" x="85.15" y="329.35" width="11.4" height="11.4"/></g><g class="cls-36"><rect class="cls-54" x="96.55" y="329.35" width="11.4" height="11.4"/></g><g class="cls-36"><rect class="cls-51" x="107.94" y="329.35" width="11.4" height="11.4"/></g><g class="cls-36"><rect class="cls-55" x="119.34" y="329.35" width="11.4" height="11.4"/></g><g class="cls-36"><rect class="cls-56" x="221.89" y="329.35" width="11.4" height="11.4"/></g><g class="cls-36"><rect class="cls-52" x="233.29" y="329.35" width="11.4" height="11.4"/></g><g class="cls-36"><rect class="cls-57" x="244.68" y="329.35" width="11.4" height="11.4"/></g><g class="cls-36"><rect class="cls-38" x="256.08" y="329.35" width="11.4" height="11.4"/></g><g class="cls-36"><rect class="cls-37" x="267.47" y="329.35" width="11.4" height="11.4"/></g><g class="cls-36"><rect class="cls-37" x="73.76" y="340.75" width="11.4" height="11.4"/></g><g class="cls-36"><rect class="cls-58" x="85.15" y="340.75" width="11.4" height="11.4"/></g><g class="cls-36"><rect class="cls-59" x="96.55" y="340.75" width="11.4" height="11.4"/></g><g class="cls-36"><rect class="cls-55" x="107.94" y="340.75" width="11.4" height="11.4"/></g><g class="cls-36"><rect class="cls-37" x="119.34" y="340.75" width="11.4" height="11.4"/></g><g class="cls-36"><rect class="cls-38" x="130.73" y="340.75" width="11.4" height="11.4"/></g><g class="cls-36"><rect class="cls-37" x="210.5" y="340.75" width="11.4" height="11.4"/></g><g class="cls-36"><rect class="cls-60" x="221.89" y="340.75" width="11.4" height="11.4"/></g><g class="cls-36"><rect class="cls-59" x="233.29" y="340.75" width="11.4" height="11.4"/></g><g class="cls-36"><rect class="cls-61" x="244.68" y="340.75" width="11.4" height="11.4"/></g><g class="cls-36"><rect class="cls-39" x="256.08" y="340.75" width="11.4" height="11.4"/></g><g class="cls-36"><rect class="cls-62" x="267.47" y="340.75" width="11.4" height="11.4"/></g><g class="cls-36"><rect class="cls-63" x="85.15" y="352.14" width="11.4" height="11.4"/></g><g class="cls-36"><rect class="cls-64" x="96.55" y="352.14" width="11.4" height="11.4"/></g><g class="cls-36"><rect class="cls-37" x="107.94" y="352.14" width="11.4" height="11.4"/></g><g class="cls-36"><rect class="cls-38" x="119.34" y="352.14" width="11.4" height="11.4"/></g><g class="cls-36"><rect class="cls-37" x="130.73" y="352.14" width="11.4" height="11.4"/></g><g class="cls-36"><rect class="cls-65" x="142.13" y="352.14" width="11.4" height="11.4"/></g><g class="cls-36"><rect class="cls-66" x="153.52" y="352.14" width="11.4" height="11.4"/></g><g class="cls-36"><rect class="cls-38" x="164.92" y="352.14" width="11.4" height="11.4"/></g><g class="cls-36"><rect class="cls-37" x="176.31" y="352.14" width="11.4" height="11.4"/></g><g class="cls-36"><rect class="cls-67" x="187.71" y="352.14" width="11.4" height="11.4"/></g><g class="cls-36"><rect class="cls-37" x="199.1" y="352.14" width="11.4" height="11.4"/></g><g class="cls-36"><rect class="cls-38" x="210.5" y="352.14" width="11.4" height="11.4"/></g><g class="cls-36"><rect class="cls-37" x="221.89" y="352.14" width="11.4" height="11.4"/></g><g class="cls-36"><rect class="cls-68" x="233.29" y="352.14" width="11.4" height="11.4"/></g><g class="cls-36"><rect class="cls-69" x="244.68" y="352.14" width="11.4" height="11.4"/></g><g class="cls-36"><rect class="cls-70" x="256.08" y="352.14" width="11.4" height="11.4"/></g><g class="cls-36"><rect class="cls-37" x="96.55" y="363.54" width="11.4" height="11.4"/></g><g class="cls-36"><rect class="cls-38" x="107.94" y="363.54" width="11.4" height="11.4"/></g><g class="cls-36"><rect class="cls-37" x="119.34" y="363.54" width="11.4" height="11.4"/></g><g class="cls-36"><rect class="cls-65" x="130.73" y="363.54" width="11.4" height="11.4"/></g><g class="cls-36"><rect class="cls-71" x="142.13" y="363.54" width="11.4" height="11.4"/></g><g class="cls-36"><rect class="cls-38" x="153.52" y="363.54" width="11.4" height="11.4"/></g><g class="cls-36"><rect class="cls-37" x="164.92" y="363.54" width="11.4" height="11.4"/></g><g class="cls-36"><rect class="cls-38" x="176.31" y="363.54" width="11.4" height="11.4"/></g><g class="cls-36"><rect class="cls-72" x="187.71" y="363.54" width="11.4" height="11.4"/></g><g class="cls-36"><rect class="cls-67" x="199.1" y="363.54" width="11.4" height="11.4"/></g><g class="cls-36"><rect class="cls-37" x="210.5" y="363.54" width="11.4" height="11.4"/></g><g class="cls-36"><rect class="cls-38" x="221.89" y="363.54" width="11.4" height="11.4"/></g><g class="cls-36"><rect class="cls-37" x="233.29" y="363.54" width="11.4" height="11.4"/></g><g class="cls-36"><rect class="cls-38" x="244.68" y="363.54" width="11.4" height="11.4"/></g><g class="cls-36"><rect class="cls-65" x="119.34" y="374.93" width="11.4" height="11.4"/></g><g class="cls-36"><rect class="cls-73" x="130.73" y="374.93" width="11.4" height="11.4"/></g><g class="cls-36"><rect class="cls-44" x="142.13" y="374.93" width="11.4" height="11.4"/></g><g class="cls-36"><rect class="cls-74" x="153.52" y="374.93" width="11.4" height="11.4"/></g><g class="cls-36"><rect class="cls-44" x="164.92" y="374.93" width="11.4" height="11.4"/></g><g class="cls-36"><rect class="cls-74" x="176.31" y="374.93" width="11.4" height="11.4"/></g><g class="cls-36"><rect class="cls-67" x="187.71" y="374.93" width="11.4" height="11.4"/></g><g class="cls-36"><rect class="cls-75" x="199.1" y="374.93" width="11.4" height="11.4"/></g><g class="cls-36"><rect class="cls-67" x="210.5" y="374.93" width="11.4" height="11.4"/></g><g class="cls-36"><rect class="cls-75" x="221.89" y="374.93" width="11.4" height="11.4"/></g><g class="cls-36"><rect class="cls-76" x="119.34" y="386.33" width="11.4" height="11.4"/></g><g class="cls-36"><rect class="cls-77" x="130.73" y="386.33" width="11.4" height="11.4"/></g><g class="cls-36"><rect class="cls-76" x="142.13" y="386.33" width="11.4" height="11.4"/></g><g class="cls-36"><rect class="cls-78" x="153.52" y="386.33" width="11.4" height="11.4"/></g><g class="cls-36"><rect class="cls-76" x="164.92" y="386.33" width="11.4" height="11.4"/></g><g class="cls-36"><rect class="cls-78" x="176.31" y="386.33" width="11.4" height="11.4"/></g><g class="cls-36"><rect class="cls-76" x="187.71" y="386.33" width="11.4" height="11.4"/></g><g class="cls-36"><rect class="cls-78" x="199.1" y="386.33" width="11.4" height="11.4"/></g><g class="cls-36"><rect class="cls-79" x="210.5" y="386.33" width="11.4" height="11.4"/></g><g class="cls-36"><rect class="cls-78" x="221.89" y="386.33" width="11.4" height="11.4"/></g><g class="cls-36"><rect class="cls-80" x="142.13" y="397.72" width="11.4" height="11.4"/></g><g class="cls-36"><rect class="cls-81" x="153.52" y="397.72" width="11.4" height="11.4"/></g><g class="cls-36"><rect class="cls-80" x="164.92" y="397.72" width="11.4" height="11.4"/></g><g class="cls-36"><rect class="cls-81" x="176.31" y="397.72" width="11.4" height="11.4"/></g><g class="cls-36"><rect class="cls-80" x="187.71" y="397.72" width="11.4" height="11.4"/></g><g class="cls-36"><rect class="cls-81" x="199.1" y="397.72" width="11.4" height="11.4"/></g><g class="cls-36"><rect class="cls-38" x="142.13" y="169.82" width="11.4" height="11.4"/></g><g class="cls-36"><rect class="cls-41" x="199.1" y="169.82" width="11.4" height="11.4"/></g><g class="cls-36"><rect class="cls-37" x="107.94" y="283.77" width="11.4" height="11.4"/></g><g class="cls-36"><rect class="cls-82" x="233.29" y="283.77" width="11.4" height="11.4"/></g><g class="cls-36"><rect class="cls-37" x="107.94" y="192.61" width="11.4" height="11.4"/></g><g class="cls-36"><rect class="cls-37" x="96.55" y="204.01" width="11.4" height="11.4"/></g></g><g id="NxDOS_copy_10" data-name="NxDOS copy 10"><g id="Layer_53_copy_6" data-name="Layer 53 copy 6"><g id="Gelion"><path class="cls-83" d="M72,290a119.51,119.51,0,0,1,6.66-42.64A103,103,0,0,1,100.45,211a97.32,97.32,0,0,1,49.75-28.8,117.35,117.35,0,0,1,59.18,1.88A97.53,97.53,0,0,1,249,207.68c15.23,14.87,24.91,33.17,29.43,54.6a104.89,104.89,0,0,1,2.37,19.61c.06,3.34.34,6.69.26,10-.43,16.91-3.54,33.15-10.69,48.41a104.67,104.67,0,0,1-19,28.09,96.29,96.29,0,0,1-21.45,16.84,102.4,102.4,0,0,1-38.38,13,118.51,118.51,0,0,1-20.79.87,105.58,105.58,0,0,1-32.42-6.32A96.81,96.81,0,0,1,103.66,371c-15.38-15.11-24.87-33.77-29.29-55.44A110.75,110.75,0,0,1,72,290Zm170.55-.91c-.14-2.48-.27-5-.42-7.45a77.78,77.78,0,0,0-8.76-32,63.12,63.12,0,0,0-25.22-26.2,63.79,63.79,0,0,0-34.24-8,64.57,64.57,0,0,0-22.68,4.71,63.26,63.26,0,0,0-30.17,26c-7,11.34-10.32,24-11.12,37.37a93.42,93.42,0,0,0,1.72,24.58,72.24,72.24,0,0,0,16.8,34.1,59.86,59.86,0,0,0,21.87,15.61,67.35,67.35,0,0,0,42,3.27,60.56,60.56,0,0,0,31.25-18.32,67,67,0,0,0,13.15-21.35A89.48,89.48,0,0,0,242.57,289.08Z"/><path class="cls-13" d="M41.29,363.81c12.53-.08,18.44,0,31-.31a60.28,60.28,0,0,0,21.28-4.7c13.12-5.29,23-14.61,29.91-27.63,6-11.35,8.39-23.78,9-36.65A116.14,116.14,0,0,0,131.7,275l38-10.73a119.51,119.51,0,0,1,1.79,18.52c0,3.34.34,6.69.25,10-.49,18.07-3.39,35.57-11.19,51.82a94.42,94.42,0,0,1-35.76,40.25c-12.45,7.75-26,12-40.22,13.81a169.2,169.2,0,0,1-21.34,1.19c-21.57.08-23.16,0-44.74,0h-2.9"/><path class="cls-84" d="M136.75,287.43c.23-5.11-.75-11.47-1.37-16.55l29.85-8.4c.8,4.79,1.51,6.38,1.3,14.49,0,2.61.27,5.23.2,7.84-.38,14.13.26,27.26-5.84,40"/></g><path class="cls-85" d="M343.87,320.55A75.94,75.94,0,0,1,345.5,336c-.39,13.88-4.18,26.52-13.1,37.21a67.41,67.41,0,0,1-19.91,16.07,87.57,87.57,0,0,1-32.4,9.79,126.42,126.42,0,0,1-18.65.65c-14.22-.5-28-3-40.82-9.89a65.29,65.29,0,0,1-34.68-50.59,101.43,101.43,0,0,1-.21-11c.53-11,8.06-20.2,18.87-20.2s19.58,9,19.58,20.22l-.05-.23c.34,2.89.55,5.8,1,8.67,1.7,10,6.83,17.53,15.42,22.5,6.41,3.71,13.37,5.29,20.63,5.88a59.74,59.74,0,0,0,17.45-1,33.86,33.86,0,0,0,17.09-8.78c5.76-5.62,7.92-12.62,7.48-20.59-.12-2.22-1.07-4.66-1.58-6.82"/></g><g id="S_alt_golge_copy_3" data-name="S alt golge copy 3"><path class="cls-85" d="M343.87,320.55A75.94,75.94,0,0,1,345.5,336c-.39,13.88-4.18,26.52-13.1,37.21a67.41,67.41,0,0,1-19.91,16.07,87.57,87.57,0,0,1-32.4,9.79,126.42,126.42,0,0,1-18.65.65c-14.22-.5-28-3-40.82-9.89a65.29,65.29,0,0,1-34.68-50.59,101.43,101.43,0,0,1-.21-11c.53-11,8.06-20.2,18.87-20.2s19.58,9,19.58,20.22l-.05-.23c.34,2.89.55,5.8,1,8.67,1.7,10,6.83,17.53,15.42,22.5,6.41,3.71,13.37,5.29,20.63,5.88a59.74,59.74,0,0,0,17.45-1,33.86,33.86,0,0,0,17.09-8.78c5.76-5.62,7.92-12.62,7.48-20.59-.12-2.22-1.07-4.66-1.58-6.82"/><path class="cls-1" d="M341.9,320.93A73.48,73.48,0,0,1,343.5,336c-.41,14.52-4.54,26.29-12.63,36a65.7,65.7,0,0,1-19.32,15.59,85.23,85.23,0,0,1-31.67,9.56,123.38,123.38,0,0,1-18.36.64c-16-.57-28.74-3.64-39.95-9.65a63.1,63.1,0,0,1-28.52-30.28,63.92,63.92,0,0,1-5.11-18.68,101.14,101.14,0,0,1-.21-10.77,20.86,20.86,0,0,1,5.07-13,15.49,15.49,0,0,1,11.81-5.31c9.69,0,17.57,8.17,17.58,18.22h0c.1.9.2,1.8.29,2.7.2,2,.41,4,.76,6.07,1.81,10.61,7.32,18.65,16.39,23.9,6,3.49,12.86,5.45,21.47,6.15a61.68,61.68,0,0,0,18-1,35.61,35.61,0,0,0,18.07-9.3c5.86-5.71,8.57-13.16,8.08-22.13a23.88,23.88,0,0,0-1.08-5.14c-.2-.7-.4-1.38-.56-2Z"/><g class="cls-86"><polygon class="cls-26" points="278.87 386.33 267.47 386.33 256.08 386.33 244.68 386.33 233.29 386.33 233.29 393.33 233.29 397.72 233.29 404.72 244.68 404.72 256.08 404.72 267.47 404.72 278.87 404.72 290.26 404.72 290.26 397.72 290.26 393.33 290.26 386.33 278.87 386.33"/></g><g class="cls-86"><rect class="cls-26" x="176.31" y="317.96" width="11.4" height="11.4"/></g><g class="cls-86"><rect class="cls-26" x="176.31" y="329.35" width="11.4" height="11.4"/></g><g class="cls-86"><rect class="cls-26" x="176.31" y="340.75" width="11.4" height="11.4"/></g><g class="cls-86"><rect class="cls-26" x="187.71" y="340.75" width="11.4" height="11.4"/></g><g class="cls-86"><rect class="cls-26" x="335.84" y="340.75" width="11.4" height="11.4"/></g><g class="cls-86"><rect class="cls-26" x="347.24" y="340.75" width="11.4" height="11.4"/></g><g class="cls-86"><rect class="cls-26" x="176.31" y="352.14" width="11.4" height="11.4"/></g><g class="cls-86"><rect class="cls-26" x="187.71" y="352.14" width="11.4" height="11.4"/></g><g class="cls-86"><rect class="cls-26" x="199.1" y="352.14" width="11.4" height="11.4"/></g><g class="cls-86"><rect class="cls-26" x="324.45" y="352.14" width="11.4" height="11.4"/></g><g class="cls-86"><rect class="cls-26" x="335.84" y="352.14" width="11.4" height="11.4"/></g><g class="cls-86"><rect class="cls-26" x="347.24" y="352.14" width="11.4" height="11.4"/></g><g class="cls-86"><rect class="cls-26" x="176.31" y="363.54" width="11.4" height="11.4"/></g><g class="cls-86"><rect class="cls-26" x="187.71" y="363.54" width="11.4" height="11.4"/></g><g class="cls-86"><rect class="cls-26" x="199.1" y="363.54" width="11.4" height="11.4"/></g><g class="cls-86"><rect class="cls-26" x="210.5" y="363.54" width="11.4" height="11.4"/></g><g class="cls-86"><rect class="cls-26" x="313.05" y="363.54" width="11.4" height="11.4"/></g><g class="cls-86"><rect class="cls-26" x="324.45" y="363.54" width="11.4" height="11.4"/></g><g class="cls-86"><rect class="cls-26" x="335.84" y="363.54" width="11.4" height="11.4"/></g><g class="cls-86"><rect class="cls-26" x="347.24" y="363.54" width="11.4" height="11.4"/></g><g class="cls-86"><rect class="cls-26" x="176.31" y="374.93" width="11.4" height="11.4"/></g><g class="cls-86"><rect class="cls-26" x="187.71" y="374.93" width="11.4" height="11.4"/></g><g class="cls-86"><rect class="cls-26" x="199.1" y="374.93" width="11.4" height="11.4"/></g><g class="cls-86"><rect class="cls-26" x="210.5" y="374.93" width="11.4" height="11.4"/></g><g class="cls-86"><rect class="cls-26" x="221.89" y="374.93" width="11.4" height="11.4"/></g><g class="cls-86"><rect class="cls-26" x="301.66" y="374.93" width="11.4" height="11.4"/></g><g class="cls-86"><rect class="cls-26" x="313.05" y="374.93" width="11.4" height="11.4"/></g><g class="cls-86"><rect class="cls-26" x="324.45" y="374.93" width="11.4" height="11.4"/></g><g class="cls-86"><rect class="cls-26" x="335.84" y="374.93" width="11.4" height="11.4"/></g><g class="cls-86"><rect class="cls-26" x="347.24" y="374.93" width="11.4" height="11.4"/></g><g class="cls-86"><rect class="cls-26" x="176.31" y="386.33" width="11.4" height="11.4"/></g><g class="cls-86"><rect class="cls-26" x="187.71" y="386.33" width="11.4" height="11.4"/></g><g class="cls-86"><rect class="cls-26" x="199.1" y="386.33" width="11.4" height="11.4"/></g><g class="cls-86"><rect class="cls-26" x="210.5" y="386.33" width="11.4" height="11.4"/></g><g class="cls-86"><rect class="cls-26" x="221.89" y="386.33" width="11.4" height="11.4"/></g><g class="cls-86"><rect class="cls-26" x="233.29" y="386.33" width="11.4" height="11.4"/></g><g class="cls-86"><rect class="cls-26" x="278.87" y="386.33" width="11.4" height="11.4"/></g><g class="cls-86"><rect class="cls-26" x="290.26" y="386.33" width="11.4" height="11.4"/></g><g class="cls-86"><rect class="cls-26" x="301.66" y="386.33" width="11.4" height="11.4"/></g><g class="cls-86"><rect class="cls-26" x="313.05" y="386.33" width="11.4" height="11.4"/></g><g class="cls-86"><rect class="cls-26" x="324.45" y="386.33" width="11.4" height="11.4"/></g><g class="cls-86"><rect class="cls-26" x="335.84" y="386.33" width="11.4" height="11.4"/></g><g class="cls-86"><rect class="cls-26" x="347.24" y="386.33" width="11.4" height="11.4"/></g><g class="cls-86"><rect class="cls-26" x="176.31" y="397.72" width="11.4" height="11.4"/></g><g class="cls-86"><rect class="cls-26" x="187.71" y="397.72" width="11.4" height="11.4"/></g><g class="cls-86"><rect class="cls-26" x="199.1" y="397.72" width="11.4" height="11.4"/></g><g class="cls-86"><rect class="cls-26" x="210.5" y="397.72" width="11.4" height="11.4"/></g><g class="cls-86"><rect class="cls-26" x="221.89" y="397.72" width="11.4" height="11.4"/></g><g class="cls-86"><rect class="cls-26" x="233.29" y="397.72" width="11.4" height="11.4"/></g><g class="cls-86"><rect class="cls-26" x="244.68" y="397.72" width="11.4" height="11.4"/></g><g class="cls-86"><rect class="cls-26" x="256.08" y="397.72" width="11.4" height="11.4"/></g><g class="cls-86"><rect class="cls-26" x="267.47" y="397.72" width="11.4" height="11.4"/></g><g class="cls-86"><rect class="cls-26" x="278.87" y="397.72" width="11.4" height="11.4"/></g><g class="cls-86"><rect class="cls-26" x="290.26" y="397.72" width="11.4" height="11.4"/></g><g class="cls-86"><rect class="cls-26" x="301.66" y="397.72" width="11.4" height="11.4"/></g><g class="cls-86"><rect class="cls-26" x="313.05" y="397.72" width="11.4" height="11.4"/></g><g class="cls-86"><rect class="cls-26" x="324.45" y="397.72" width="11.4" height="11.4"/></g><g class="cls-86"><rect class="cls-26" x="335.84" y="397.72" width="11.4" height="11.4"/></g><g class="cls-86"><rect class="cls-26" x="347.24" y="397.72" width="11.4" height="11.4"/></g><g class="cls-86"><polygon class="cls-26" points="347.24 340.75 335.84 340.75 335.84 352.14 324.45 352.14 324.45 363.54 313.05 363.54 313.05 374.93 301.66 374.93 301.66 386.33 290.26 386.33 278.87 386.33 278.87 397.72 267.47 397.72 256.08 397.72 244.68 397.72 244.68 386.33 233.29 386.33 233.29 374.93 221.89 374.93 221.89 363.54 210.5 363.54 210.5 352.14 199.1 352.14 199.1 340.75 187.71 340.75 187.71 329.35 187.71 317.96 176.31 317.96 176.31 329.35 176.31 340.75 176.31 352.14 176.31 363.54 176.31 374.93 176.31 386.33 176.31 397.72 176.31 409.12 187.71 409.12 199.1 409.12 210.5 409.12 221.89 409.12 233.29 409.12 244.68 409.12 256.08 409.12 267.47 409.12 278.87 409.12 290.26 409.12 301.66 409.12 313.05 409.12 324.45 409.12 335.84 409.12 347.24 409.12 358.63 409.12 358.63 397.72 358.63 386.33 358.63 374.93 358.63 363.54 358.63 352.14 358.63 340.75 347.24 340.75"/></g><g class="cls-86"><rect class="cls-26" x="176.31" y="317.96" width="11.4" height="11.4"/></g><g class="cls-86"><rect class="cls-28" x="187.71" y="317.96" width="11.4" height="11.4"/></g><g class="cls-86"><rect class="cls-26" x="176.31" y="329.35" width="11.4" height="11.4"/></g><g class="cls-86"><rect class="cls-87" x="187.71" y="329.35" width="11.4" height="11.4"/></g><g class="cls-86"><rect class="cls-26" x="176.31" y="340.75" width="11.4" height="11.4"/></g><g class="cls-86"><rect class="cls-26" x="187.71" y="340.75" width="11.4" height="11.4"/></g><g class="cls-86"><rect class="cls-27" x="199.1" y="340.75" width="11.4" height="11.4"/></g><g class="cls-86"><rect class="cls-26" x="335.84" y="340.75" width="11.4" height="11.4"/></g><g class="cls-86"><rect class="cls-26" x="347.24" y="340.75" width="11.4" height="11.4"/></g><g class="cls-86"><rect class="cls-26" x="176.31" y="352.14" width="11.4" height="11.4"/></g><g class="cls-86"><rect class="cls-26" x="187.71" y="352.14" width="11.4" height="11.4"/></g><g class="cls-86"><rect class="cls-26" x="199.1" y="352.14" width="11.4" height="11.4"/></g><g class="cls-86"><rect class="cls-26" x="324.45" y="352.14" width="11.4" height="11.4"/></g><g class="cls-86"><rect class="cls-26" x="335.84" y="352.14" width="11.4" height="11.4"/></g><g class="cls-86"><rect class="cls-26" x="347.24" y="352.14" width="11.4" height="11.4"/></g><g class="cls-86"><rect class="cls-26" x="176.31" y="363.54" width="11.4" height="11.4"/></g><g class="cls-86"><rect class="cls-26" x="187.71" y="363.54" width="11.4" height="11.4"/></g><g class="cls-86"><rect class="cls-26" x="199.1" y="363.54" width="11.4" height="11.4"/></g><g class="cls-86"><rect class="cls-26" x="210.5" y="363.54" width="11.4" height="11.4"/></g><g class="cls-86"><rect class="cls-27" x="221.89" y="363.54" width="11.4" height="11.4"/></g><g class="cls-86"><rect class="cls-26" x="313.05" y="363.54" width="11.4" height="11.4"/></g><g class="cls-86"><rect class="cls-26" x="324.45" y="363.54" width="11.4" height="11.4"/></g><g class="cls-86"><rect class="cls-26" x="335.84" y="363.54" width="11.4" height="11.4"/></g><g class="cls-86"><rect class="cls-26" x="347.24" y="363.54" width="11.4" height="11.4"/></g><g class="cls-86"><rect class="cls-26" x="176.31" y="374.93" width="11.4" height="11.4"/></g><g class="cls-86"><rect class="cls-26" x="187.71" y="374.93" width="11.4" height="11.4"/></g><g class="cls-86"><rect class="cls-26" x="199.1" y="374.93" width="11.4" height="11.4"/></g><g class="cls-86"><rect class="cls-26" x="210.5" y="374.93" width="11.4" height="11.4"/></g><g class="cls-86"><rect class="cls-26" x="221.89" y="374.93" width="11.4" height="11.4"/></g><g class="cls-86"><rect class="cls-31" x="233.29" y="374.93" width="11.4" height="11.4"/></g><g class="cls-86"><rect class="cls-27" x="244.68" y="374.93" width="11.4" height="11.4"/></g><g class="cls-86"><rect class="cls-27" x="278.87" y="374.93" width="11.4" height="11.4"/></g><g class="cls-86"><rect class="cls-30" x="290.26" y="374.93" width="11.4" height="11.4"/></g><g class="cls-86"><rect class="cls-26" x="301.66" y="374.93" width="11.4" height="11.4"/></g><g class="cls-86"><rect class="cls-26" x="313.05" y="374.93" width="11.4" height="11.4"/></g><g class="cls-86"><rect class="cls-26" x="324.45" y="374.93" width="11.4" height="11.4"/></g><g class="cls-86"><rect class="cls-26" x="335.84" y="374.93" width="11.4" height="11.4"/></g><g class="cls-86"><rect class="cls-26" x="347.24" y="374.93" width="11.4" height="11.4"/></g><g class="cls-86"><rect class="cls-26" x="176.31" y="386.33" width="11.4" height="11.4"/></g><g class="cls-86"><rect class="cls-26" x="187.71" y="386.33" width="11.4" height="11.4"/></g><g class="cls-86"><rect class="cls-26" x="199.1" y="386.33" width="11.4" height="11.4"/></g><g class="cls-86"><rect class="cls-26" x="210.5" y="386.33" width="11.4" height="11.4"/></g><g class="cls-86"><rect class="cls-26" x="221.89" y="386.33" width="11.4" height="11.4"/></g><g class="cls-86"><rect class="cls-26" x="233.29" y="386.33" width="11.4" height="11.4"/></g><g class="cls-86"><rect class="cls-32" x="244.68" y="386.33" width="11.4" height="11.4"/></g><g class="cls-86"><polygon class="cls-88" points="267.47 386.33 256.08 386.33 256.08 397.72 267.47 397.72 278.87 397.72 278.87 386.33 267.47 386.33"/></g><g class="cls-86"><rect class="cls-26" x="278.87" y="386.33" width="11.4" height="11.4"/></g><g class="cls-86"><rect class="cls-26" x="290.26" y="386.33" width="11.4" height="11.4"/></g><g class="cls-86"><rect class="cls-26" x="301.66" y="386.33" width="11.4" height="11.4"/></g><g class="cls-86"><rect class="cls-26" x="313.05" y="386.33" width="11.4" height="11.4"/></g><g class="cls-86"><rect class="cls-26" x="324.45" y="386.33" width="11.4" height="11.4"/></g><g class="cls-86"><rect class="cls-26" x="335.84" y="386.33" width="11.4" height="11.4"/></g><g class="cls-86"><rect class="cls-26" x="347.24" y="386.33" width="11.4" height="11.4"/></g><g class="cls-86"><rect class="cls-26" x="176.31" y="397.72" width="11.4" height="11.4"/></g><g class="cls-86"><rect class="cls-26" x="187.71" y="397.72" width="11.4" height="11.4"/></g><g class="cls-86"><rect class="cls-26" x="199.1" y="397.72" width="11.4" height="11.4"/></g><g class="cls-86"><rect class="cls-26" x="210.5" y="397.72" width="11.4" height="11.4"/></g><g class="cls-86"><rect class="cls-26" x="221.89" y="397.72" width="11.4" height="11.4"/></g><g class="cls-86"><rect class="cls-26" x="233.29" y="397.72" width="11.4" height="11.4"/></g><g class="cls-86"><rect class="cls-26" x="244.68" y="397.72" width="11.4" height="11.4"/></g><g class="cls-86"><rect class="cls-26" x="256.08" y="397.72" width="11.4" height="11.4"/></g><g class="cls-86"><rect class="cls-26" x="267.47" y="397.72" width="11.4" height="11.4"/></g><g class="cls-86"><rect class="cls-26" x="278.87" y="397.72" width="11.4" height="11.4"/></g><g class="cls-86"><rect class="cls-26" x="290.26" y="397.72" width="11.4" height="11.4"/></g><g class="cls-86"><rect class="cls-26" x="301.66" y="397.72" width="11.4" height="11.4"/></g><g class="cls-86"><rect class="cls-26" x="313.05" y="397.72" width="11.4" height="11.4"/></g><g class="cls-86"><rect class="cls-26" x="324.45" y="397.72" width="11.4" height="11.4"/></g><g class="cls-86"><rect class="cls-26" x="335.84" y="397.72" width="11.4" height="11.4"/></g><g class="cls-86"><rect class="cls-26" x="347.24" y="397.72" width="11.4" height="11.4"/></g></g><g id="Layer_22_copy_10" data-name="Layer 22 copy 10"><g class="cls-89"><g class="cls-90"><polygon class="cls-91" points="164.92 317.96 164.92 329.35 164.92 340.75 176.31 340.75 176.31 329.35 176.31 317.96 164.92 317.96"/></g><g class="cls-90"><polygon class="cls-20" points="153.52 329.35 153.52 340.75 153.52 352.14 164.92 352.14 164.92 340.75 164.92 329.35 153.52 329.35"/></g><g class="cls-90"><rect class="cls-17" x="130.73" y="352.14" width="11.4" height="11.4"/></g><g class="cls-90"><polygon class="cls-92" points="142.13 340.75 142.13 352.14 142.13 363.54 153.52 363.54 153.52 352.14 153.52 340.75 142.13 340.75"/></g><g class="cls-90"><rect class="cls-93" x="107.94" y="363.54" width="11.4" height="11.4"/></g><g class="cls-90"><rect class="cls-20" x="119.34" y="363.54" width="11.4" height="11.4"/></g><g class="cls-90"><rect class="cls-18" x="130.73" y="363.54" width="11.4" height="11.4"/></g><g class="cls-90"><rect class="cls-19" x="16.78" y="374.93" width="11.4" height="11.4"/></g><g class="cls-90"><polygon class="cls-20" points="50.97 374.93 39.57 374.93 28.18 374.93 28.18 386.33 39.57 386.33 50.97 386.33 62.36 386.33 62.36 374.93 50.97 374.93"/></g><g class="cls-90"><rect class="cls-21" x="62.36" y="374.93" width="11.4" height="11.4"/></g><g class="cls-90"><rect class="cls-20" x="73.76" y="374.93" width="11.4" height="11.4"/></g><g class="cls-90"><rect class="cls-21" x="85.15" y="374.93" width="11.4" height="11.4"/></g><g class="cls-90"><polygon class="cls-94" points="107.94 374.93 96.55 374.93 96.55 386.33 107.94 386.33 119.34 386.33 119.34 374.93 107.94 374.93"/></g><g class="cls-90"><polygon class="cls-15" points="153.52 340.75 153.52 352.14 142.13 352.14 142.13 363.54 130.73 363.54 130.73 374.93 119.34 374.93 119.34 386.33 130.73 386.33 142.13 386.33 142.13 374.93 153.52 374.93 153.52 363.54 164.92 363.54 164.92 352.14 164.92 340.75 153.52 340.75"/><polygon class="cls-15" points="96.55 386.33 85.15 386.33 73.76 386.33 62.36 386.33 50.97 386.33 39.57 386.33 28.18 386.33 16.78 386.33 5.39 386.33 5.39 397.72 5.39 409.12 16.78 409.12 28.18 409.12 39.57 409.12 50.97 409.12 62.36 409.12 73.76 409.12 85.15 409.12 96.55 409.12 96.55 397.72 107.94 397.72 119.34 397.72 119.34 386.33 107.94 386.33 96.55 386.33"/></g></g></g><path class="cls-95" d="M233.28,256.66V251.8a75.36,75.36,0,0,1-1.48-9.88c-.06-10.07,2.4-13.92,6.6-18.51a29.09,29.09,0,0,1,13.5-8.65c6.11-2,12.39-2.21,18.71-1.85a40.49,40.49,0,0,1,14.4,3.31c7.85,3.51,13.64,9.05,16.22,17.46a92.17,92.17,0,0,1,1.88,9.44c1.42,9.55,11,17.61,19.89,16.91,8.3-.26,17.13-5.3,18.16-16.7a37.22,37.22,0,0,0,.29-4.77,44.47,44.47,0,0,0-.75-6.5,55.61,55.61,0,0,0-21.83-36.74,74.08,74.08,0,0,0-32.78-14.08,109.41,109.41,0,0,0-24.39-1.61,123.85,123.85,0,0,0-16.09,1.61c-15.39,2.78-29.05,8.94-40,20.6a53.26,53.26,0,0,0-12.82,23.33,67.9,67.9,0,0,0-1.38,26.06l.06.43h3.94l11.06,7.17,24.24.35"/><g class="cls-96"><polygon class="cls-26" points="335.84 226.8 335.84 238.19 324.45 238.19 313.05 238.19 313.05 226.8 301.66 226.8 290.26 226.8 290.26 238.19 301.66 238.19 301.66 249.59 301.66 260.98 313.05 260.98 324.45 260.98 335.84 260.98 347.24 260.98 347.24 249.59 347.24 238.19 347.24 226.8 335.84 226.8"/></g><g class="cls-96"><rect class="cls-33" x="290.26" y="215.4" width="11.4" height="11.4"/></g><g class="cls-96"><rect class="cls-27" x="301.66" y="215.4" width="11.4" height="11.4"/></g><g class="cls-96"><rect class="cls-26" x="290.26" y="226.8" width="11.4" height="11.4"/></g><g class="cls-96"><rect class="cls-97" x="301.66" y="226.8" width="11.4" height="11.4"/></g><g class="cls-96"><rect class="cls-33" x="324.45" y="226.8" width="11.4" height="11.4"/></g><g class="cls-96"><rect class="cls-26" x="335.84" y="226.8" width="11.4" height="11.4"/></g><g class="cls-96"><rect class="cls-26" x="301.66" y="238.19" width="11.4" height="11.4"/></g><g class="cls-96"><rect class="cls-31" x="313.05" y="238.19" width="11.4" height="11.4"/></g><g class="cls-96"><rect class="cls-87" x="324.45" y="238.19" width="11.4" height="11.4"/></g><g class="cls-96"><rect class="cls-26" x="335.84" y="238.19" width="11.4" height="11.4"/></g><g class="cls-96"><rect class="cls-26" x="301.66" y="249.59" width="11.4" height="11.4"/></g><g class="cls-96"><rect class="cls-26" x="313.05" y="249.59" width="11.4" height="11.4"/></g><g class="cls-96"><rect class="cls-26" x="324.45" y="249.59" width="11.4" height="11.4"/></g><g class="cls-96"><rect class="cls-26" x="335.84" y="249.59" width="11.4" height="11.4"/></g><path class="cls-98" d="M191.44,251.07A68.2,68.2,0,0,1,192.82,225a53.31,53.31,0,0,1,12.82-23.33c10.9-11.65,24.56-17.82,40-20.6a123.85,123.85,0,0,1,16.09-1.61,109.41,109.41,0,0,1,24.39,1.61,74.19,74.19,0,0,1,32.78,14.08,55.65,55.65,0,0,1,21.83,36.74,43.14,43.14,0,0,1,.75,6.5,37.22,37.22,0,0,1-.29,4.77c-1,11.41-9.86,16.45-18.16,16.7-8.87.7-18.47-7.35-19.89-16.91a92.17,92.17,0,0,0-1.88-9.44c-2.59-8.41-8.37-14-16.22-17.46a40.49,40.49,0,0,0-14.4-3.31c-6.32-.36-12.6-.12-18.71,1.85a29,29,0,0,0-13.5,8.65c-4.19,4.59-6.66,8.44-6.6,18.51.33,7.73,4.54,14.13,5,15.23"/></g></g></svg>