<svg id="f39ec27d-096f-4f1d-9dd4-30d4a0fb83b3" data-name="O mask" xmlns="http://www.w3.org/2000/svg" viewBox="0 0 349.2 403.6"><title>nxdos-logo-lower-mask2-01</title><path d="M111.68,285c.8-13.41,4.13-26,11.12-37.37a63.26,63.26,0,0,1,30.17-26,64.57,64.57,0,0,1,22.68-4.71,66.65,66.65,0,0,1,21.24,2.54,53.19,53.19,0,0,1,10.47-16.3,63.6,63.6,0,0,1,16.46-12.66,101.14,101.14,0,0,0-12.72-4.93,117.35,117.35,0,0,0-59.18-1.88,97.32,97.32,0,0,0-49.75,28.8A103,103,0,0,0,80.4,248.83a119.51,119.51,0,0,0-6.66,42.64,110.75,110.75,0,0,0,2.35,25.6c3.31,16.21,9.46,30.74,18.78,43.35l.38-.14c12.25-4.94,21.71-13.39,28.49-25.07a74.32,74.32,0,0,1-10.34-25.63A93.42,93.42,0,0,1,111.68,285Z"/><path d="M233.59,244.41l0,.33a28.24,28.24,0,0,0,1.46,6.33l0,.07a77.78,77.78,0,0,1,8.76,32c.15,2.48.28,5,.42,7.45a89.48,89.48,0,0,1-5.82,32.33,68.07,68.07,0,0,1-10.84,18.7,30.32,30.32,0,0,0,14.67,19.09,43.63,43.63,0,0,0,14.49,5.09,106.38,106.38,0,0,0,15.31-24c7.15-15.26,10.26-31.5,10.69-48.41.08-3.34-.2-6.69-.26-10a104.89,104.89,0,0,0-2.37-19.61c-3.9-18.52-11.67-34.69-23.53-48.34-1,.24-2,.5-3,.82a29.09,29.09,0,0,0-13.5,8.65c-4.2,4.59-6.66,8.44-6.6,18.51l0,.53C233.57,244.09,233.57,244.25,233.59,244.41Z"/><path d="M222.34,391.32a64.85,64.85,0,0,1-28.23-28.77h0a67.41,67.41,0,0,1-39.91-2.45,93.26,93.26,0,0,1-27.62,26.22c-.52.33-1.05.64-1.59.95a103.19,103.19,0,0,0,15.1,7,105.58,105.58,0,0,0,32.42,6.32,118.51,118.51,0,0,0,20.79-.87,103.48,103.48,0,0,0,29.3-8.33Z"/></svg>